<svg xmlns="http://www.w3.org/2000/svg" xmlns:xlink="http://www.w3.org/1999/xlink" width="500" zoomAndPan="magnify" viewBox="0 0 375 374.999991" height="500" preserveAspectRatio="xMidYMid meet" version="1.0"><defs><g/><clipPath id="75cc364d93"><path d="M 109.769531 94 L 247.5 94 L 247.5 194.371094 L 109.769531 194.371094 Z M 109.769531 94 " clip-rule="nonzero"/></clipPath><clipPath id="29e5310ae3"><path d="M 230.648438 194.121094 L 230.636719 194.121094 C 228.980469 193.652344 227.429688 193.0625 225.984375 192.417969 C 221.375 190.339844 217.664062 187.628906 214.296875 184.867188 L 212.960938 183.726562 L 211.890625 182.773438 L 209.738281 180.867188 C 208.242188 179.449219 206.679688 177.972656 205.289062 176.550781 C 202.445312 173.707031 199.757812 170.742188 197.128906 167.777344 C 194.546875 164.785156 192.0625 161.738281 189.683594 158.679688 C 184.875 152.589844 180.546875 146.351562 176.257812 140.316406 C 174.132812 137.296875 172.035156 134.304688 169.953125 131.328125 C 168.910156 129.867188 167.882812 128.402344 166.851562 126.957031 C 166.332031 126.257812 165.824219 125.585938 165.316406 124.902344 C 164.953125 124.421875 164.59375 123.949219 164.207031 123.46875 C 164.074219 123.277344 163.925781 123.105469 163.777344 122.917969 C 159.554688 117.632812 155.066406 112.855469 150.003906 109.234375 C 144.914062 105.636719 139.433594 103.195312 133.4375 102.351562 C 132.820312 102.3125 132.222656 102.273438 131.59375 102.203125 C 130.925781 102.230469 130.269531 102.246094 129.601562 102.273438 C 128.976562 102.390625 128.304688 102.417969 127.679688 102.578125 C 127.078125 102.78125 126.410156 102.847656 125.847656 103.128906 C 123.457031 104.015625 121.320312 105.570312 119.597656 107.625 C 117.886719 109.675781 116.601562 112.171875 115.679688 114.789062 C 114.746094 117.402344 114.222656 120.15625 113.808594 122.984375 C 112.195312 134.0625 113.460938 144.703125 116.1875 153.53125 C 117.566406 157.957031 119.222656 161.996094 121.117188 165.550781 C 123.015625 169.0625 125.3125 172.054688 128.078125 173.921875 C 130.816406 175.796875 133.902344 176.46875 136.457031 176.132812 C 139.035156 175.773438 140.972656 174.511719 142.386719 173.449219 C 143.792969 172.335938 144.710938 171.292969 145.300781 170.59375 C 145.339844 170.539062 145.382812 170.5 145.421875 170.460938 C 145.382812 170.5 145.355469 170.554688 145.316406 170.59375 C 144.726562 171.316406 143.832031 172.378906 142.429688 173.503906 C 141.011719 174.578125 139.089844 175.878906 136.484375 176.28125 C 133.878906 176.644531 130.777344 175.984375 127.890625 174.203125 C 125.007812 172.390625 122.535156 169.414062 120.488281 165.898438 C 118.472656 162.371094 116.480469 158.425781 114.839844 153.984375 C 113.195312 149.558594 111.832031 144.6875 110.898438 139.429688 C 110.054688 134.144531 109.5625 128.539062 109.855469 122.566406 C 110.109375 116.8125 110.925781 110.078125 114.8125 104.121094 C 116.710938 101.160156 119.460938 98.433594 122.894531 96.652344 C 123.722656 96.140625 124.644531 95.871094 125.539062 95.46875 C 126.449219 95.136719 127.386719 94.917969 128.320312 94.652344 C 129.269531 94.464844 130.214844 94.328125 131.179688 94.183594 C 132.195312 94.128906 133.222656 94.074219 134.25 94.046875 C 135.082031 94.074219 135.894531 94.117188 136.722656 94.140625 C 136.871094 94.15625 136.628906 94.117188 137.085938 94.183594 L 137.257812 94.195312 L 137.605469 94.234375 L 138.285156 94.328125 L 139.664062 94.503906 C 140.585938 94.597656 141.480469 94.839844 142.402344 95.011719 C 143.324219 95.175781 144.234375 95.429688 145.140625 95.683594 C 148.761719 96.703125 152.300781 98.167969 155.65625 99.976562 C 160.894531 102.835938 165.703125 106.445312 170.113281 110.46875 C 170.804688 111.085938 171.488281 111.730469 172.15625 112.371094 C 172.691406 112.894531 173.210938 113.417969 173.730469 113.941406 C 175.054688 115.269531 176.417969 116.71875 177.699219 118.113281 L 179.570312 120.195312 L 181.386719 122.289062 C 183.78125 125.078125 186.183594 127.894531 188.601562 130.722656 C 193.359375 136.386719 198.144531 142.046875 202.980469 147.5625 C 207.855469 153.058594 212.824219 158.386719 218.078125 163.335938 C 219.386719 164.625 220.667969 165.683594 221.949219 166.890625 L 224.113281 168.78125 L 225.199219 169.722656 L 226.050781 170.433594 C 228.605469 172.484375 231.222656 174.226562 233.613281 175.277344 C 234.789062 175.824219 235.925781 176.226562 236.902344 176.390625 C 237.382812 176.46875 237.863281 176.5625 238.277344 176.550781 C 238.492188 176.5625 238.707031 176.578125 238.890625 176.535156 C 239.039062 176.523438 239.347656 176.535156 239.347656 176.507812 C 239.375 176.496094 239.386719 176.507812 239.414062 176.507812 L 239.453125 176.535156 C 239.464844 176.535156 239.453125 176.5625 239.613281 176.507812 L 240.683594 176.1875 C 240.683594 176.1875 240.710938 176.1875 240.722656 176.171875 C 240.734375 176.171875 240.75 176.171875 240.777344 176.160156 C 240.816406 176.148438 240.855469 176.132812 240.910156 176.121094 L 240.789062 176.148438 L 240.960938 176.078125 L 241.363281 175.90625 C 241.644531 175.8125 241.910156 175.703125 242.125 175.570312 C 243.128906 175.128906 243.847656 174.589844 244.464844 174.027344 C 245.066406 173.464844 245.558594 172.832031 245.972656 172.027344 C 246.375 171.210938 246.679688 170.191406 246.910156 169.011719 C 247.257812 167.28125 247.308594 165.175781 247.148438 162.933594 C 247.738281 170.125 247.871094 190.875 230.648438 194.121094 Z M 230.648438 194.121094 " clip-rule="nonzero"/></clipPath><clipPath id="eca866219b"><path d="M 230.648438 194.121094 L 230.636719 194.121094 C 228.980469 193.652344 227.429688 193.0625 225.984375 192.417969 C 221.375 190.339844 217.664062 187.628906 214.296875 184.867188 L 212.960938 183.726562 L 211.890625 182.773438 L 209.738281 180.867188 C 208.242188 179.449219 206.679688 177.972656 205.289062 176.550781 C 202.445312 173.707031 199.757812 170.742188 197.128906 167.777344 C 194.546875 164.785156 192.0625 161.738281 189.683594 158.679688 C 184.875 152.589844 180.546875 146.351562 176.257812 140.316406 C 174.132812 137.296875 172.035156 134.304688 169.953125 131.328125 C 168.910156 129.867188 167.882812 128.402344 166.851562 126.957031 C 166.332031 126.257812 165.824219 125.585938 165.316406 124.902344 C 164.953125 124.421875 164.59375 123.949219 164.207031 123.46875 C 164.074219 123.277344 163.925781 123.105469 163.777344 122.917969 C 159.554688 117.632812 155.066406 112.855469 150.003906 109.234375 C 144.914062 105.636719 139.433594 103.195312 133.4375 102.351562 C 132.820312 102.3125 132.222656 102.273438 131.59375 102.203125 C 130.925781 102.230469 130.269531 102.246094 129.601562 102.273438 C 128.976562 102.390625 128.304688 102.417969 127.679688 102.578125 C 127.078125 102.78125 126.410156 102.847656 125.847656 103.128906 C 123.457031 104.015625 121.320312 105.570312 119.597656 107.625 C 117.886719 109.675781 116.601562 112.171875 115.679688 114.789062 C 114.746094 117.402344 114.222656 120.15625 113.808594 122.984375 C 112.195312 134.0625 113.460938 144.703125 116.1875 153.53125 C 117.566406 157.957031 119.222656 161.996094 121.117188 165.550781 C 123.015625 169.0625 125.3125 172.054688 128.078125 173.921875 C 130.816406 175.796875 133.902344 176.46875 136.457031 176.132812 C 139.035156 175.773438 140.972656 174.511719 142.386719 173.449219 C 143.792969 172.335938 144.710938 171.292969 145.300781 170.59375 C 145.339844 170.539062 145.382812 170.5 145.421875 170.460938 C 145.382812 170.5 145.355469 170.554688 145.316406 170.59375 C 144.726562 171.316406 143.832031 172.378906 142.429688 173.503906 C 141.011719 174.578125 139.089844 175.878906 136.484375 176.28125 C 133.878906 176.644531 130.777344 175.984375 127.890625 174.203125 C 125.007812 172.390625 122.535156 169.414062 120.488281 165.898438 C 118.472656 162.371094 116.480469 158.425781 114.839844 153.984375 C 113.195312 149.558594 111.832031 144.6875 110.898438 139.429688 C 110.054688 134.144531 109.5625 128.539062 109.855469 122.566406 C 110.109375 116.8125 110.925781 110.078125 114.8125 104.121094 C 116.710938 101.160156 119.460938 98.433594 122.894531 96.652344 C 123.722656 96.140625 124.644531 95.871094 125.539062 95.46875 C 126.449219 95.136719 127.386719 94.917969 128.320312 94.652344 C 129.269531 94.464844 130.214844 94.328125 131.179688 94.183594 C 132.195312 94.128906 133.222656 94.074219 134.25 94.046875 C 135.082031 94.074219 135.894531 94.117188 136.722656 94.140625 C 136.871094 94.15625 136.628906 94.117188 137.085938 94.183594 L 137.257812 94.195312 L 137.605469 94.234375 L 138.285156 94.328125 L 139.664062 94.503906 C 140.585938 94.597656 141.480469 94.839844 142.402344 95.011719 C 143.324219 95.175781 144.234375 95.429688 145.140625 95.683594 C 148.761719 96.703125 152.300781 98.167969 155.65625 99.976562 C 160.894531 102.835938 165.703125 106.445312 170.113281 110.46875 C 170.804688 111.085938 171.488281 111.730469 172.15625 112.371094 C 172.691406 112.894531 173.210938 113.417969 173.730469 113.941406 C 175.054688 115.269531 176.417969 116.71875 177.699219 118.113281 L 179.570312 120.195312 L 181.386719 122.289062 C 183.78125 125.078125 186.183594 127.894531 188.601562 130.722656 C 193.359375 136.386719 198.144531 142.046875 202.980469 147.5625 C 207.855469 153.058594 212.824219 158.386719 218.078125 163.335938 C 219.386719 164.625 220.667969 165.683594 221.949219 166.890625 L 224.113281 168.78125 L 225.199219 169.722656 L 226.050781 170.433594 C 228.605469 172.484375 231.222656 174.226562 233.613281 175.277344 C 234.789062 175.824219 235.925781 176.226562 236.902344 176.390625 C 237.382812 176.46875 237.863281 176.5625 238.277344 176.550781 C 238.492188 176.5625 238.707031 176.578125 238.890625 176.535156 C 239.039062 176.523438 239.347656 176.535156 239.347656 176.507812 C 239.375 176.496094 239.386719 176.507812 239.414062 176.507812 L 239.453125 176.535156 C 239.464844 176.535156 239.453125 176.5625 239.613281 176.507812 L 240.683594 176.1875 C 240.683594 176.1875 240.710938 176.1875 240.722656 176.171875 C 240.734375 176.171875 240.75 176.171875 240.777344 176.160156 C 240.816406 176.148438 240.855469 176.132812 240.910156 176.121094 L 240.789062 176.148438 L 240.960938 176.078125 L 241.363281 175.90625 C 241.644531 175.8125 241.910156 175.703125 242.125 175.570312 C 243.128906 175.128906 243.847656 174.589844 244.464844 174.027344 C 245.066406 173.464844 245.558594 172.832031 245.972656 172.027344 C 246.375 171.210938 246.679688 170.191406 246.910156 169.011719 C 247.257812 167.28125 247.308594 165.175781 247.148438 162.933594 C 247.738281 170.125 247.871094 190.875 230.648438 194.121094 " clip-rule="nonzero"/></clipPath><clipPath id="d130dd63ed"><path d="M 150.171875 30.804688 L 64.167969 164.738281 L 207.257812 257.367188 L 293.261719 123.433594 Z M 150.171875 30.804688 " clip-rule="nonzero"/></clipPath><linearGradient x1="-0.0270798" gradientTransform="matrix(135.388074, 87.642637, -87.288458, 135.937421, 103.359606, 112.114747)" y1="0" x2="1.026788" gradientUnits="userSpaceOnUse" y2="0" id="0a402abc96"><stop stop-opacity="1" stop-color="rgb(96.099854%, 52.49939%, 8.599854%)" offset="0"/><stop stop-opacity="1" stop-color="rgb(96.099854%, 52.34375%, 8.599854%)" offset="0.0625"/><stop stop-opacity="1" stop-color="rgb(96.099854%, 51.992798%, 8.599854%)" offset="0.0703125"/><stop stop-opacity="1" stop-color="rgb(96.099854%, 51.779175%, 8.599854%)" offset="0.078125"/><stop stop-opacity="1" stop-color="rgb(96.099854%, 51.579285%, 8.599854%)" offset="0.0859375"/><stop stop-opacity="1" stop-color="rgb(96.099854%, 51.382446%, 8.599854%)" offset="0.09375"/><stop stop-opacity="1" stop-color="rgb(96.299744%, 50.982666%, 8.599854%)" offset="0.0976562"/><stop stop-opacity="1" stop-color="rgb(96.499634%, 50.59967%, 8.599854%)" offset="0.101562"/><stop stop-opacity="1" stop-color="rgb(96.476746%, 50.59967%, 8.599854%)" offset="0.109375"/><stop stop-opacity="1" stop-color="rgb(96.276855%, 50.563049%, 8.634949%)" offset="0.117188"/><stop stop-opacity="1" stop-color="rgb(96.099854%, 50.350952%, 8.834839%)" offset="0.125"/><stop stop-opacity="1" stop-color="rgb(96.099854%, 49.983215%, 8.996582%)" offset="0.140625"/><stop stop-opacity="1" stop-color="rgb(96.099854%, 49.552917%, 8.796692%)" offset="0.144531"/><stop stop-opacity="1" stop-color="rgb(96.099854%, 49.311829%, 8.599854%)" offset="0.148438"/><stop stop-opacity="1" stop-color="rgb(96.099854%, 49.154663%, 8.599854%)" offset="0.15625"/><stop stop-opacity="1" stop-color="rgb(96.099854%, 48.986816%, 8.610535%)" offset="0.164062"/><stop stop-opacity="1" stop-color="rgb(96.099854%, 48.780823%, 8.810425%)" offset="0.171875"/><stop stop-opacity="1" stop-color="rgb(96.099854%, 48.39325%, 8.999634%)" offset="0.179688"/><stop stop-opacity="1" stop-color="rgb(96.099854%, 48.008728%, 8.999634%)" offset="0.1875"/><stop stop-opacity="1" stop-color="rgb(96.099854%, 47.657776%, 8.988953%)" offset="0.203125"/><stop stop-opacity="1" stop-color="rgb(96.095276%, 47.499084%, 8.789062%)" offset="0.210938"/><stop stop-opacity="1" stop-color="rgb(95.895386%, 47.499084%, 8.599854%)" offset="0.21875"/><stop stop-opacity="1" stop-color="rgb(95.698547%, 47.305298%, 8.79364%)" offset="0.226563"/><stop stop-opacity="1" stop-color="rgb(95.698547%, 47.091675%, 8.99353%)" offset="0.234375"/><stop stop-opacity="1" stop-color="rgb(95.698547%, 46.882629%, 8.999634%)" offset="0.25"/><stop stop-opacity="1" stop-color="rgb(95.698547%, 46.498108%, 8.999634%)" offset="0.257813"/><stop stop-opacity="1" stop-color="rgb(95.698547%, 46.30127%, 8.999634%)" offset="0.265625"/><stop stop-opacity="1" stop-color="rgb(95.698547%, 46.099854%, 8.799744%)" offset="0.269531"/><stop stop-opacity="1" stop-color="rgb(95.698547%, 45.899963%, 8.599854%)" offset="0.273438"/><stop stop-opacity="1" stop-color="rgb(95.698547%, 45.899963%, 8.605957%)" offset="0.28125"/><stop stop-opacity="1" stop-color="rgb(95.698547%, 45.896912%, 8.805847%)" offset="0.289062"/><stop stop-opacity="1" stop-color="rgb(95.698547%, 45.700073%, 8.999634%)" offset="0.296875"/><stop stop-opacity="1" stop-color="rgb(95.698547%, 45.315552%, 8.999634%)" offset="0.3125"/><stop stop-opacity="1" stop-color="rgb(95.498657%, 44.91272%, 8.999634%)" offset="0.316406"/><stop stop-opacity="1" stop-color="rgb(95.298767%, 44.699097%, 8.999634%)" offset="0.320313"/><stop stop-opacity="1" stop-color="rgb(95.298767%, 44.697571%, 8.998108%)" offset="0.328125"/><stop stop-opacity="1" stop-color="rgb(95.298767%, 44.502258%, 8.802795%)" offset="0.335938"/><stop stop-opacity="1" stop-color="rgb(95.298767%, 44.303894%, 8.79364%)" offset="0.34375"/><stop stop-opacity="1" stop-color="rgb(95.298767%, 44.114685%, 8.988953%)" offset="0.351563"/><stop stop-opacity="1" stop-color="rgb(95.298767%, 43.910217%, 8.999634%)" offset="0.359375"/><stop stop-opacity="1" stop-color="rgb(95.298767%, 43.695068%, 8.999634%)" offset="0.375"/><stop stop-opacity="1" stop-color="rgb(95.298767%, 43.315125%, 8.815002%)" offset="0.390625"/><stop stop-opacity="1" stop-color="rgb(95.298767%, 42.915344%, 8.815002%)" offset="0.394531"/><stop stop-opacity="1" stop-color="rgb(95.298767%, 42.698669%, 8.999634%)" offset="0.398438"/><stop stop-opacity="1" stop-color="rgb(95.298767%, 42.698669%, 8.999634%)" offset="0.40625"/><stop stop-opacity="1" stop-color="rgb(95.298767%, 42.549133%, 8.999634%)" offset="0.421875"/><stop stop-opacity="1" stop-color="rgb(95.298767%, 42.216492%, 8.999634%)" offset="0.429688"/><stop stop-opacity="1" stop-color="rgb(95.298767%, 42.016602%, 8.999634%)" offset="0.4375"/><stop stop-opacity="1" stop-color="rgb(95.298767%, 41.802979%, 8.999634%)" offset="0.441406"/><stop stop-opacity="1" stop-color="rgb(95.298767%, 41.607666%, 8.999634%)" offset="0.445313"/><stop stop-opacity="1" stop-color="rgb(95.298767%, 41.603088%, 9.190369%)" offset="0.453125"/><stop stop-opacity="1" stop-color="rgb(95.298767%, 41.412354%, 9.390259%)" offset="0.460938"/><stop stop-opacity="1" stop-color="rgb(95.298767%, 41.212463%, 9.399414%)" offset="0.46875"/><stop stop-opacity="1" stop-color="rgb(95.298767%, 41.003418%, 9.399414%)" offset="0.484375"/><stop stop-opacity="1" stop-color="rgb(95.298767%, 40.618896%, 9.399414%)" offset="0.5"/><stop stop-opacity="1" stop-color="rgb(95.118713%, 40.414429%, 9.577942%)" offset="0.507812"/><stop stop-opacity="1" stop-color="rgb(94.918823%, 40.19928%, 9.777832%)" offset="0.511719"/><stop stop-opacity="1" stop-color="rgb(94.898987%, 39.99939%, 9.799194%)" offset="0.515625"/><stop stop-opacity="1" stop-color="rgb(94.898987%, 39.805603%, 9.991455%)" offset="0.523438"/><stop stop-opacity="1" stop-color="rgb(94.898987%, 39.605713%, 10.191345%)" offset="0.53125"/><stop stop-opacity="1" stop-color="rgb(94.898987%, 39.414978%, 10.198975%)" offset="0.539062"/><stop stop-opacity="1" stop-color="rgb(94.898987%, 39.215088%, 10.198975%)" offset="0.546875"/><stop stop-opacity="1" stop-color="rgb(94.898987%, 39.025879%, 10.198975%)" offset="0.554688"/><stop stop-opacity="1" stop-color="rgb(94.898987%, 38.825989%, 10.366821%)" offset="0.5625"/><stop stop-opacity="1" stop-color="rgb(95.083618%, 38.612366%, 10.566711%)" offset="0.570312"/><stop stop-opacity="1" stop-color="rgb(95.283508%, 38.412476%, 10.598755%)" offset="0.578125"/><stop stop-opacity="1" stop-color="rgb(95.298767%, 38.221741%, 10.598755%)" offset="0.585937"/><stop stop-opacity="1" stop-color="rgb(95.298767%, 38.021851%, 10.598755%)" offset="0.59375"/><stop stop-opacity="1" stop-color="rgb(95.298767%, 37.814331%, 10.598755%)" offset="0.609375"/><stop stop-opacity="1" stop-color="rgb(95.298767%, 37.614441%, 10.778809%)" offset="0.617188"/><stop stop-opacity="1" stop-color="rgb(95.298767%, 37.467957%, 10.978699%)" offset="0.625"/><stop stop-opacity="1" stop-color="rgb(95.298767%, 37.316895%, 10.998535%)" offset="0.632812"/><stop stop-opacity="1" stop-color="rgb(95.298767%, 36.968994%, 10.998535%)" offset="0.636719"/><stop stop-opacity="1" stop-color="rgb(95.298767%, 36.639404%, 10.998535%)" offset="0.640625"/><stop stop-opacity="1" stop-color="rgb(95.115662%, 36.569214%, 11.181641%)" offset="0.648438"/><stop stop-opacity="1" stop-color="rgb(94.915771%, 36.499023%, 11.381531%)" offset="0.65625"/><stop stop-opacity="1" stop-color="rgb(94.898987%, 36.325073%, 11.399841%)" offset="0.664063"/><stop stop-opacity="1" stop-color="rgb(94.898987%, 36.125183%, 11.399841%)" offset="0.671875"/><stop stop-opacity="1" stop-color="rgb(94.898987%, 35.935974%, 11.399841%)" offset="0.679688"/><stop stop-opacity="1" stop-color="rgb(94.898987%, 35.736084%, 11.399841%)" offset="0.6875"/><stop stop-opacity="1" stop-color="rgb(94.898987%, 35.523987%, 11.399841%)" offset="0.695312"/><stop stop-opacity="1" stop-color="rgb(94.898987%, 35.324097%, 11.399841%)" offset="0.703125"/><stop stop-opacity="1" stop-color="rgb(94.898987%, 35.131836%, 11.399841%)" offset="0.710938"/><stop stop-opacity="1" stop-color="rgb(94.898987%, 34.931946%, 11.399841%)" offset="0.71875"/><stop stop-opacity="1" stop-color="rgb(94.898987%, 34.725952%, 11.399841%)" offset="0.734375"/><stop stop-opacity="1" stop-color="rgb(94.898987%, 34.359741%, 11.399841%)" offset="0.75"/><stop stop-opacity="1" stop-color="rgb(94.898987%, 33.976746%, 11.555481%)" offset="0.765625"/><stop stop-opacity="1" stop-color="rgb(94.898987%, 33.743286%, 11.755371%)" offset="0.78125"/><stop stop-opacity="1" stop-color="rgb(94.898987%, 33.518982%, 11.619568%)" offset="0.796875"/><stop stop-opacity="1" stop-color="rgb(94.744873%, 33.319092%, 11.419678%)" offset="0.804688"/><stop stop-opacity="1" stop-color="rgb(94.544983%, 33.299255%, 11.399841%)" offset="0.8125"/><stop stop-opacity="1" stop-color="rgb(94.499207%, 33.13446%, 11.399841%)" offset="0.820312"/><stop stop-opacity="1" stop-color="rgb(94.499207%, 32.93457%, 11.56311%)" offset="0.828125"/><stop stop-opacity="1" stop-color="rgb(94.499207%, 32.740784%, 11.763%)" offset="0.835937"/><stop stop-opacity="1" stop-color="rgb(94.499207%, 32.540894%, 11.799622%)" offset="0.84375"/><stop stop-opacity="1" stop-color="rgb(94.499207%, 32.348633%, 11.799622%)" offset="0.859375"/><stop stop-opacity="1" stop-color="rgb(94.499207%, 31.999207%, 11.799622%)" offset="0.863281"/><stop stop-opacity="1" stop-color="rgb(94.499207%, 31.799316%, 11.799622%)" offset="0.867188"/><stop stop-opacity="1" stop-color="rgb(94.499207%, 31.642151%, 11.799622%)" offset="0.875"/><stop stop-opacity="1" stop-color="rgb(94.499207%, 31.295776%, 11.799622%)" offset="0.890625"/><stop stop-opacity="1" stop-color="rgb(94.499207%, 31.053162%, 11.799622%)" offset="0.90625"/><stop stop-opacity="1" stop-color="rgb(94.499207%, 30.844116%, 11.799622%)" offset="0.914063"/><stop stop-opacity="1" stop-color="rgb(94.499207%, 30.644226%, 11.949158%)" offset="0.921875"/><stop stop-opacity="1" stop-color="rgb(94.499207%, 30.453491%, 12.149048%)" offset="0.929688"/><stop stop-opacity="1" stop-color="rgb(94.499207%, 30.253601%, 12.199402%)" offset="0.9375"/><stop stop-opacity="1" stop-color="rgb(94.499207%, 30.044556%, 12.199402%)" offset="0.945312"/><stop stop-opacity="1" stop-color="rgb(94.499207%, 29.844666%, 12.199402%)" offset="0.953125"/><stop stop-opacity="1" stop-color="rgb(94.499207%, 29.649353%, 12.199402%)" offset="0.960938"/><stop stop-opacity="1" stop-color="rgb(94.499207%, 29.449463%, 12.306213%)" offset="0.96875"/><stop stop-opacity="1" stop-color="rgb(94.499207%, 29.399109%, 12.457275%)" offset="1"/></linearGradient><clipPath id="65345e99e9"><path d="M 146.375 123.359375 L 165.605469 123.359375 L 165.605469 169.144531 L 146.375 169.144531 Z M 146.375 123.359375 " clip-rule="nonzero"/></clipPath><clipPath id="d279dd2bfe"><path d="M 164.207031 123.46875 C 163.671875 124.78125 163.152344 126.070312 162.644531 127.332031 C 160.917969 131.703125 159.488281 135.847656 158.101562 139.644531 C 156.75 143.46875 155.453125 146.945312 154.398438 150.148438 C 152.394531 156.5625 150.605469 161.523438 148.976562 164.746094 C 148.1875 166.355469 147.453125 167.535156 146.972656 168.3125 C 146.769531 168.59375 146.609375 168.835938 146.488281 169.023438 C 146.625 168.847656 146.785156 168.609375 146.984375 168.328125 C 147.480469 167.550781 148.226562 166.382812 149.027344 164.769531 C 149.84375 163.160156 150.75 161.136719 151.675781 158.695312 C 152.621094 156.253906 153.542969 153.410156 154.707031 150.257812 C 157.125 144.003906 160.050781 136.359375 163.9375 127.878906 C 164.378906 126.902344 164.847656 125.910156 165.316406 124.902344 C 164.953125 124.421875 164.59375 123.949219 164.207031 123.46875 Z M 164.207031 123.46875 " clip-rule="nonzero"/></clipPath><clipPath id="01a8d72f26"><path d="M 164.207031 123.46875 C 163.671875 124.78125 163.152344 126.070312 162.644531 127.332031 C 160.917969 131.703125 159.488281 135.847656 158.101562 139.644531 C 156.75 143.46875 155.453125 146.945312 154.398438 150.148438 C 152.394531 156.5625 150.605469 161.523438 148.976562 164.746094 C 148.1875 166.355469 147.453125 167.535156 146.972656 168.3125 C 146.769531 168.59375 146.609375 168.835938 146.488281 169.023438 C 146.625 168.847656 146.785156 168.609375 146.984375 168.328125 C 147.480469 167.550781 148.226562 166.382812 149.027344 164.769531 C 149.84375 163.160156 150.75 161.136719 151.675781 158.695312 C 152.621094 156.253906 153.542969 153.410156 154.707031 150.257812 C 157.125 144.003906 160.050781 136.359375 163.9375 127.878906 C 164.378906 126.902344 164.847656 125.910156 165.316406 124.902344 C 164.953125 124.421875 164.59375 123.949219 164.207031 123.46875 " clip-rule="nonzero"/></clipPath><clipPath id="70e9198f77"><path d="M 156.78125 114.058594 L 123.902344 144.121094 L 155.023438 178.433594 L 187.902344 148.371094 Z M 156.78125 114.058594 " clip-rule="nonzero"/></clipPath><linearGradient x1="0.10438" gradientTransform="matrix(142.958127, 157.624798, -156.987804, 143.53819, 125.116822, 112.913207)" y1="0" x2="0.322073" gradientUnits="userSpaceOnUse" y2="0" id="2ba8dbef9c"><stop stop-opacity="1" stop-color="rgb(19.999695%, 40.042114%, 72.499084%)" offset="0"/><stop stop-opacity="1" stop-color="rgb(19.999695%, 40.220642%, 72.523499%)" offset="0.03125"/><stop stop-opacity="1" stop-color="rgb(19.999695%, 40.41748%, 72.723389%)" offset="0.046875"/><stop stop-opacity="1" stop-color="rgb(19.999695%, 40.617371%, 72.898865%)" offset="0.0625"/><stop stop-opacity="1" stop-color="rgb(20.021057%, 40.820312%, 72.920227%)" offset="0.078125"/><stop stop-opacity="1" stop-color="rgb(20.220947%, 41.020203%, 73.120117%)" offset="0.09375"/><stop stop-opacity="1" stop-color="rgb(20.399475%, 41.223145%, 73.298645%)" offset="0.109375"/><stop stop-opacity="1" stop-color="rgb(20.399475%, 41.423035%, 73.318481%)" offset="0.125"/><stop stop-opacity="1" stop-color="rgb(20.399475%, 41.61377%, 73.518372%)" offset="0.140625"/><stop stop-opacity="1" stop-color="rgb(20.399475%, 41.815186%, 73.699951%)" offset="0.15625"/><stop stop-opacity="1" stop-color="rgb(20.399475%, 42.016602%, 73.699951%)" offset="0.171875"/><stop stop-opacity="1" stop-color="rgb(20.399475%, 42.216492%, 73.699951%)" offset="0.1875"/><stop stop-opacity="1" stop-color="rgb(20.399475%, 42.41333%, 73.718262%)" offset="0.203125"/><stop stop-opacity="1" stop-color="rgb(20.399475%, 42.562866%, 73.918152%)" offset="0.21875"/><stop stop-opacity="1" stop-color="rgb(20.399475%, 42.721558%, 74.099731%)" offset="0.234375"/><stop stop-opacity="1" stop-color="rgb(20.41626%, 42.921448%, 74.116516%)" offset="0.25"/><stop stop-opacity="1" stop-color="rgb(20.61615%, 43.119812%, 74.316406%)" offset="0.28125"/><stop stop-opacity="1" stop-color="rgb(20.799255%, 43.319702%, 74.499512%)" offset="0.3125"/><stop stop-opacity="1" stop-color="rgb(20.799255%, 43.516541%, 74.499512%)" offset="0.328125"/><stop stop-opacity="1" stop-color="rgb(20.799255%, 43.716431%, 74.511719%)" offset="0.34375"/><stop stop-opacity="1" stop-color="rgb(20.819092%, 43.919373%, 74.711609%)" offset="0.359375"/><stop stop-opacity="1" stop-color="rgb(21.018982%, 44.119263%, 74.899292%)" offset="0.375"/><stop stop-opacity="1" stop-color="rgb(21.188354%, 44.309998%, 74.909973%)" offset="0.390625"/><stop stop-opacity="1" stop-color="rgb(21.005249%, 44.509888%, 75.109863%)" offset="0.40625"/><stop stop-opacity="1" stop-color="rgb(21.01593%, 44.711304%, 75.299072%)" offset="0.421875"/><stop stop-opacity="1" stop-color="rgb(21.199036%, 44.911194%, 75.299072%)" offset="0.4375"/><stop stop-opacity="1" stop-color="rgb(21.199036%, 45.114136%, 75.299072%)" offset="0.453125"/><stop stop-opacity="1" stop-color="rgb(21.199036%, 45.314026%, 75.309753%)" offset="0.46875"/><stop stop-opacity="1" stop-color="rgb(21.217346%, 45.516968%, 75.509644%)" offset="0.484375"/><stop stop-opacity="1" stop-color="rgb(21.403503%, 45.716858%, 75.698853%)" offset="0.5"/><stop stop-opacity="1" stop-color="rgb(21.585083%, 45.915222%, 75.714111%)" offset="0.53125"/><stop stop-opacity="1" stop-color="rgb(21.598816%, 46.121216%, 75.914001%)" offset="0.5625"/><stop stop-opacity="1" stop-color="rgb(21.612549%, 46.505737%, 76.098633%)" offset="0.578125"/><stop stop-opacity="1" stop-color="rgb(21.812439%, 46.707153%, 76.107788%)" offset="0.59375"/><stop stop-opacity="1" stop-color="rgb(21.998596%, 46.907043%, 76.307678%)" offset="0.609375"/><stop stop-opacity="1" stop-color="rgb(21.998596%, 47.109985%, 76.499939%)" offset="0.625"/><stop stop-opacity="1" stop-color="rgb(21.998596%, 47.309875%, 76.506042%)" offset="0.640625"/><stop stop-opacity="1" stop-color="rgb(21.998596%, 47.50824%, 76.705933%)" offset="0.65625"/><stop stop-opacity="1" stop-color="rgb(21.998596%, 47.662354%, 76.899719%)" offset="0.6875"/><stop stop-opacity="1" stop-color="rgb(21.998596%, 47.911072%, 76.899719%)" offset="0.695313"/><stop stop-opacity="1" stop-color="rgb(22.009277%, 48.106384%, 76.899719%)" offset="0.703125"/><stop stop-opacity="1" stop-color="rgb(22.210693%, 48.205566%, 76.905823%)" offset="0.71875"/><stop stop-opacity="1" stop-color="rgb(22.399902%, 48.405457%, 77.105713%)" offset="0.75"/><stop stop-opacity="1" stop-color="rgb(22.399902%, 48.602295%, 77.2995%)" offset="0.765625"/><stop stop-opacity="1" stop-color="rgb(22.399902%, 48.710632%, 77.2995%)" offset="0.773438"/><stop stop-opacity="1" stop-color="rgb(22.399902%, 48.905945%, 77.307129%)" offset="0.78125"/><stop stop-opacity="1" stop-color="rgb(22.40448%, 49.005127%, 77.456665%)" offset="0.796875"/><stop stop-opacity="1" stop-color="rgb(22.554016%, 49.205017%, 77.598572%)" offset="0.8125"/><stop stop-opacity="1" stop-color="rgb(22.698975%, 49.403381%, 77.598572%)" offset="0.84375"/><stop stop-opacity="1" stop-color="rgb(22.698975%, 49.603271%, 77.598572%)" offset="0.859375"/><stop stop-opacity="1" stop-color="rgb(22.698975%, 49.804688%, 77.604675%)" offset="0.875"/><stop stop-opacity="1" stop-color="rgb(22.698975%, 50.006104%, 77.806091%)" offset="0.890625"/><stop stop-opacity="1" stop-color="rgb(22.698975%, 50.20752%, 77.999878%)" offset="0.90625"/><stop stop-opacity="1" stop-color="rgb(22.698975%, 50.40741%, 78.00293%)" offset="0.921875"/><stop stop-opacity="1" stop-color="rgb(22.698975%, 50.59967%, 78.201294%)" offset="0.9375"/><stop stop-opacity="1" stop-color="rgb(22.698975%, 50.701904%, 78.398132%)" offset="0.945312"/><stop stop-opacity="1" stop-color="rgb(22.705078%, 50.901794%, 78.399658%)" offset="0.953125"/><stop stop-opacity="1" stop-color="rgb(22.904968%, 50.999451%, 78.399658%)" offset="0.96875"/><stop stop-opacity="1" stop-color="rgb(23.098755%, 51.101685%, 78.399658%)" offset="0.984375"/><stop stop-opacity="1" stop-color="rgb(23.098755%, 51.300049%, 78.399658%)" offset="1"/></linearGradient><clipPath id="48e9c25dd6"><path d="M 170 83 L 264.871094 83 L 264.871094 195.214844 L 170 195.214844 Z M 170 83 " clip-rule="nonzero"/></clipPath><clipPath id="a16b213396"><path d="M 264.585938 171.640625 C 264.25 174.214844 263.582031 176.925781 262.421875 179.582031 C 261.246094 182.25 259.535156 184.8125 257.449219 186.960938 C 255.378906 189.09375 252.976562 190.851562 250.554688 192.082031 C 249.941406 192.433594 249.339844 192.703125 248.726562 192.96875 L 247.804688 193.359375 L 247.351562 193.546875 C 247.285156 193.574219 247.257812 193.574219 247.257812 193.585938 C 247.203125 193.613281 247.054688 193.667969 246.628906 193.816406 L 246.453125 193.867188 L 245.089844 194.296875 C 245.023438 194.324219 244.769531 194.390625 244.558594 194.433594 L 243.890625 194.59375 L 242.550781 194.863281 C 238.210938 195.585938 234.203125 195.128906 230.648438 194.121094 C 247.871094 190.875 247.738281 170.125 247.148438 162.933594 L 247.148438 162.878906 C 247.121094 162.542969 247.082031 162.234375 247.054688 161.96875 C 247.042969 161.832031 247.027344 161.699219 247.015625 161.59375 C 247.003906 161.351562 246.976562 161.148438 246.949219 160.988281 C 246.910156 160.652344 246.882812 160.480469 246.882812 160.480469 C 246.429688 157.328125 245.695312 154.011719 244.746094 150.6875 C 243.808594 147.34375 242.632812 144.003906 241.445312 140.570312 C 240.214844 137.054688 239.054688 133.824219 237.714844 130.5625 C 236.421875 127.332031 235.042969 124.179688 233.535156 121.144531 C 232.011719 118.113281 230.410156 115.175781 228.644531 112.398438 C 226.867188 109.582031 225.035156 107.046875 222.925781 104.484375 C 218.8125 99.546875 214.148438 95.242188 209.042969 92.585938 C 208.722656 92.425781 208.496094 92.277344 208.109375 92.101562 L 206.988281 91.605469 L 205.15625 90.9375 C 203.875 90.574219 202.5625 90.277344 201.242188 90.199219 C 198.609375 90.011719 195.925781 90.480469 193.359375 91.472656 C 188.242188 93.527344 183.726562 97.320312 180.078125 101.507812 C 177.058594 104.929688 174.441406 108.671875 172.15625 112.371094 C 171.488281 111.730469 170.804688 111.085938 170.113281 110.46875 C 172.074219 106.683594 174.332031 102.835938 177.019531 99.023438 C 180.507812 94.261719 184.796875 89.433594 190.902344 86.148438 C 193.917969 84.511719 197.460938 83.371094 201.214844 83.167969 C 203.097656 83.035156 204.996094 83.195312 206.867188 83.503906 L 208.253906 83.8125 L 208.953125 83.972656 L 209.3125 84.054688 L 209.484375 84.09375 C 209.578125 84.121094 209.511719 84.082031 209.738281 84.160156 L 210.914062 84.523438 C 211.300781 84.628906 211.808594 84.832031 212.25 84.992188 C 219.253906 87.59375 225.277344 92.035156 230.675781 97.066406 C 233.320312 99.535156 235.96875 102.378906 238.34375 105.289062 C 240.734375 108.214844 242.96875 111.300781 245.023438 114.503906 C 247.09375 117.710938 249.019531 121.027344 250.8125 124.40625 C 252.574219 127.773438 254.257812 131.339844 255.804688 134.683594 C 257.410156 138.117188 258.933594 141.722656 260.335938 145.496094 C 261.738281 149.265625 263.007812 153.234375 263.851562 157.527344 C 264.679688 161.820312 265.238281 166.460938 264.585938 171.640625 Z M 264.585938 171.640625 " clip-rule="nonzero"/></clipPath><clipPath id="afff390a72"><path d="M 264.585938 171.640625 C 264.25 174.214844 263.582031 176.925781 262.421875 179.582031 C 261.246094 182.25 259.535156 184.8125 257.449219 186.960938 C 255.378906 189.09375 252.976562 190.851562 250.554688 192.082031 C 249.941406 192.433594 249.339844 192.703125 248.726562 192.96875 L 247.804688 193.359375 L 247.351562 193.546875 C 247.285156 193.574219 247.257812 193.574219 247.257812 193.585938 C 247.203125 193.613281 247.054688 193.667969 246.628906 193.816406 L 246.453125 193.867188 L 245.089844 194.296875 C 245.023438 194.324219 244.769531 194.390625 244.558594 194.433594 L 243.890625 194.59375 L 242.550781 194.863281 C 238.210938 195.585938 234.203125 195.128906 230.648438 194.121094 C 247.871094 190.875 247.738281 170.125 247.148438 162.933594 L 247.148438 162.878906 C 247.121094 162.542969 247.082031 162.234375 247.054688 161.96875 C 247.042969 161.832031 247.027344 161.699219 247.015625 161.59375 C 247.003906 161.351562 246.976562 161.148438 246.949219 160.988281 C 246.910156 160.652344 246.882812 160.480469 246.882812 160.480469 C 246.429688 157.328125 245.695312 154.011719 244.746094 150.6875 C 243.808594 147.34375 242.632812 144.003906 241.445312 140.570312 C 240.214844 137.054688 239.054688 133.824219 237.714844 130.5625 C 236.421875 127.332031 235.042969 124.179688 233.535156 121.144531 C 232.011719 118.113281 230.410156 115.175781 228.644531 112.398438 C 226.867188 109.582031 225.035156 107.046875 222.925781 104.484375 C 218.8125 99.546875 214.148438 95.242188 209.042969 92.585938 C 208.722656 92.425781 208.496094 92.277344 208.109375 92.101562 L 206.988281 91.605469 L 205.15625 90.9375 C 203.875 90.574219 202.5625 90.277344 201.242188 90.199219 C 198.609375 90.011719 195.925781 90.480469 193.359375 91.472656 C 188.242188 93.527344 183.726562 97.320312 180.078125 101.507812 C 177.058594 104.929688 174.441406 108.671875 172.15625 112.371094 C 171.488281 111.730469 170.804688 111.085938 170.113281 110.46875 C 172.074219 106.683594 174.332031 102.835938 177.019531 99.023438 C 180.507812 94.261719 184.796875 89.433594 190.902344 86.148438 C 193.917969 84.511719 197.460938 83.371094 201.214844 83.167969 C 203.097656 83.035156 204.996094 83.195312 206.867188 83.503906 L 208.253906 83.8125 L 208.953125 83.972656 L 209.3125 84.054688 L 209.484375 84.09375 C 209.578125 84.121094 209.511719 84.082031 209.738281 84.160156 L 210.914062 84.523438 C 211.300781 84.628906 211.808594 84.832031 212.25 84.992188 C 219.253906 87.59375 225.277344 92.035156 230.675781 97.066406 C 233.320312 99.535156 235.96875 102.378906 238.34375 105.289062 C 240.734375 108.214844 242.96875 111.300781 245.023438 114.503906 C 247.09375 117.710938 249.019531 121.027344 250.8125 124.40625 C 252.574219 127.773438 254.257812 131.339844 255.804688 134.683594 C 257.410156 138.117188 258.933594 141.722656 260.335938 145.496094 C 261.738281 149.265625 263.007812 153.234375 263.851562 157.527344 C 264.679688 161.820312 265.238281 166.460938 264.585938 171.640625 " clip-rule="nonzero"/></clipPath><clipPath id="f3d8addee8"><path d="M 222.117188 35.488281 L 114.308594 134.058594 L 213.234375 243.132812 L 321.042969 144.5625 Z M 222.117188 35.488281 " clip-rule="nonzero"/></clipPath><linearGradient x1="0.0390597" gradientTransform="matrix(142.958539, 157.62524, -156.988247, 143.538602, 166.711273, 74.881228)" y1="0" x2="0.728603" gradientUnits="userSpaceOnUse" y2="0" id="f1cfa2fa62"><stop stop-opacity="1" stop-color="rgb(19.207764%, 36.898804%, 70.599365%)" offset="0"/><stop stop-opacity="1" stop-color="rgb(19.403076%, 37.09259%, 70.599365%)" offset="0.00390625"/><stop stop-opacity="1" stop-color="rgb(19.599915%, 37.286377%, 70.599365%)" offset="0.0078125"/><stop stop-opacity="1" stop-color="rgb(19.599915%, 37.29248%, 70.599365%)" offset="0.015625"/><stop stop-opacity="1" stop-color="rgb(19.599915%, 37.315369%, 70.799255%)" offset="0.0195312"/><stop stop-opacity="1" stop-color="rgb(19.599915%, 37.332153%, 70.999146%)" offset="0.0234375"/><stop stop-opacity="1" stop-color="rgb(19.599915%, 37.477112%, 70.999146%)" offset="0.03125"/><stop stop-opacity="1" stop-color="rgb(19.599915%, 37.809753%, 71.199036%)" offset="0.0351562"/><stop stop-opacity="1" stop-color="rgb(19.599915%, 37.998962%, 71.398926%)" offset="0.0390625"/><stop stop-opacity="1" stop-color="rgb(19.599915%, 38.188171%, 71.398926%)" offset="0.046875"/><stop stop-opacity="1" stop-color="rgb(19.599915%, 38.568115%, 71.577454%)" offset="0.0546875"/><stop stop-opacity="1" stop-color="rgb(19.599915%, 38.777161%, 71.777344%)" offset="0.0625"/><stop stop-opacity="1" stop-color="rgb(19.599915%, 38.998413%, 71.998596%)" offset="0.0664062"/><stop stop-opacity="1" stop-color="rgb(19.599915%, 39.199829%, 72.198486%)" offset="0.0703125"/><stop stop-opacity="1" stop-color="rgb(19.795227%, 39.395142%, 72.198486%)" offset="0.0742187"/><stop stop-opacity="1" stop-color="rgb(19.992065%, 39.59198%, 72.198486%)" offset="0.078125"/><stop stop-opacity="1" stop-color="rgb(19.995117%, 39.595032%, 72.198486%)" offset="0.0859375"/><stop stop-opacity="1" stop-color="rgb(19.999695%, 39.7995%, 72.329712%)" offset="0.0898437"/><stop stop-opacity="1" stop-color="rgb(19.999695%, 39.99939%, 72.462463%)" offset="0.09375"/><stop stop-opacity="1" stop-color="rgb(19.999695%, 40.19928%, 72.480774%)" offset="0.0976562"/><stop stop-opacity="1" stop-color="rgb(19.999695%, 40.39917%, 72.499084%)" offset="0.101562"/><stop stop-opacity="1" stop-color="rgb(19.999695%, 40.59906%, 72.698975%)" offset="0.105469"/><stop stop-opacity="1" stop-color="rgb(19.999695%, 40.79895%, 72.898865%)" offset="0.109375"/><stop stop-opacity="1" stop-color="rgb(20.191956%, 40.79895%, 72.898865%)" offset="0.117187"/><stop stop-opacity="1" stop-color="rgb(20.391846%, 40.99884%, 73.098755%)" offset="0.121094"/><stop stop-opacity="1" stop-color="rgb(20.399475%, 41.19873%, 73.298645%)" offset="0.125"/><stop stop-opacity="1" stop-color="rgb(20.399475%, 41.398621%, 73.298645%)" offset="0.128906"/><stop stop-opacity="1" stop-color="rgb(20.399475%, 41.598511%, 73.298645%)" offset="0.132812"/><stop stop-opacity="1" stop-color="rgb(20.399475%, 41.758728%, 73.498535%)" offset="0.136719"/><stop stop-opacity="1" stop-color="rgb(20.399475%, 41.920471%, 73.699951%)" offset="0.140625"/><stop stop-opacity="1" stop-color="rgb(20.399475%, 41.960144%, 73.699951%)" offset="0.148437"/><stop stop-opacity="1" stop-color="rgb(20.399475%, 42.199707%, 73.699951%)" offset="0.152344"/><stop stop-opacity="1" stop-color="rgb(20.399475%, 42.399597%, 73.699951%)" offset="0.15625"/><stop stop-opacity="1" stop-color="rgb(20.399475%, 42.549133%, 73.899841%)" offset="0.160156"/><stop stop-opacity="1" stop-color="rgb(20.399475%, 42.698669%, 74.099731%)" offset="0.164062"/><stop stop-opacity="1" stop-color="rgb(20.399475%, 42.866516%, 74.099731%)" offset="0.171875"/><stop stop-opacity="1" stop-color="rgb(20.578003%, 43.066406%, 74.278259%)" offset="0.179687"/><stop stop-opacity="1" stop-color="rgb(20.777893%, 43.2724%, 74.478149%)" offset="0.1875"/><stop stop-opacity="1" stop-color="rgb(20.799255%, 43.47229%, 74.499512%)" offset="0.195312"/><stop stop-opacity="1" stop-color="rgb(20.799255%, 43.699646%, 74.499512%)" offset="0.199219"/><stop stop-opacity="1" stop-color="rgb(20.799255%, 43.899536%, 74.499512%)" offset="0.203125"/><stop stop-opacity="1" stop-color="rgb(20.962524%, 44.099426%, 74.699402%)" offset="0.207031"/><stop stop-opacity="1" stop-color="rgb(21.127319%, 44.299316%, 74.899292%)" offset="0.210937"/><stop stop-opacity="1" stop-color="rgb(21.009827%, 44.451904%, 74.899292%)" offset="0.21875"/><stop stop-opacity="1" stop-color="rgb(21.046448%, 44.793701%, 75.099182%)" offset="0.222656"/><stop stop-opacity="1" stop-color="rgb(21.199036%, 44.984436%, 75.299072%)" offset="0.226562"/><stop stop-opacity="1" stop-color="rgb(21.199036%, 45.040894%, 75.299072%)" offset="0.234375"/><stop stop-opacity="1" stop-color="rgb(21.199036%, 45.298767%, 75.299072%)" offset="0.238281"/><stop stop-opacity="1" stop-color="rgb(21.199036%, 45.498657%, 75.299072%)" offset="0.242187"/><stop stop-opacity="1" stop-color="rgb(21.199036%, 45.498657%, 75.479126%)" offset="0.25"/><stop stop-opacity="1" stop-color="rgb(21.199036%, 45.672607%, 75.679016%)" offset="0.257812"/><stop stop-opacity="1" stop-color="rgb(21.398926%, 46.073914%, 75.837708%)" offset="0.261719"/><stop stop-opacity="1" stop-color="rgb(21.598816%, 46.299744%, 75.976562%)" offset="0.265625"/><stop stop-opacity="1" stop-color="rgb(21.598816%, 46.469116%, 76.037598%)" offset="0.273438"/><stop stop-opacity="1" stop-color="rgb(21.765137%, 46.836853%, 76.264954%)" offset="0.277344"/><stop stop-opacity="1" stop-color="rgb(21.932983%, 47.033691%, 76.4328%)" offset="0.28125"/><stop stop-opacity="1" stop-color="rgb(21.965027%, 47.065735%, 76.46637%)" offset="0.289062"/><stop stop-opacity="1" stop-color="rgb(21.998596%, 47.299194%, 76.644897%)" offset="0.292969"/><stop stop-opacity="1" stop-color="rgb(21.998596%, 47.499084%, 76.789856%)" offset="0.296875"/><stop stop-opacity="1" stop-color="rgb(21.998596%, 47.648621%, 76.844788%)" offset="0.304687"/><stop stop-opacity="1" stop-color="rgb(21.998596%, 47.923279%, 76.899719%)" offset="0.3125"/><stop stop-opacity="1" stop-color="rgb(22.177124%, 48.123169%, 76.899719%)" offset="0.320312"/><stop stop-opacity="1" stop-color="rgb(22.37854%, 48.374939%, 77.075195%)" offset="0.328125"/><stop stop-opacity="1" stop-color="rgb(22.399902%, 48.716736%, 77.275085%)" offset="0.335938"/><stop stop-opacity="1" stop-color="rgb(22.399902%, 48.94104%, 77.449036%)" offset="0.34375"/><stop stop-opacity="1" stop-color="rgb(22.489929%, 49.198914%, 77.598572%)" offset="0.347656"/><stop stop-opacity="1" stop-color="rgb(22.579956%, 49.398804%, 77.598572%)" offset="0.351562"/><stop stop-opacity="1" stop-color="rgb(22.639465%, 49.398804%, 77.598572%)" offset="0.359375"/><stop stop-opacity="1" stop-color="rgb(22.698975%, 49.598694%, 77.598572%)" offset="0.363281"/><stop stop-opacity="1" stop-color="rgb(22.698975%, 49.798584%, 77.598572%)" offset="0.367187"/><stop stop-opacity="1" stop-color="rgb(22.698975%, 49.998474%, 77.798462%)" offset="0.371094"/><stop stop-opacity="1" stop-color="rgb(22.698975%, 50.19989%, 77.999878%)" offset="0.375"/><stop stop-opacity="1" stop-color="rgb(22.698975%, 50.39978%, 77.999878%)" offset="0.378906"/><stop stop-opacity="1" stop-color="rgb(22.698975%, 50.59967%, 77.999878%)" offset="0.382812"/><stop stop-opacity="1" stop-color="rgb(22.698975%, 50.715637%, 78.199768%)" offset="0.386719"/><stop stop-opacity="1" stop-color="rgb(22.698975%, 50.831604%, 78.399658%)" offset="0.390625"/><stop stop-opacity="1" stop-color="rgb(22.839355%, 50.915527%, 78.399658%)" offset="0.398438"/><stop stop-opacity="1" stop-color="rgb(23.039246%, 51.171875%, 78.399658%)" offset="0.40625"/><stop stop-opacity="1" stop-color="rgb(23.098755%, 51.506042%, 78.53241%)" offset="0.414062"/><stop stop-opacity="1" stop-color="rgb(23.098755%, 51.733398%, 78.7323%)" offset="0.421875"/><stop stop-opacity="1" stop-color="rgb(23.21167%, 51.998901%, 78.910828%)" offset="0.425781"/><stop stop-opacity="1" stop-color="rgb(23.324585%, 52.198792%, 79.023743%)" offset="0.429688"/><stop stop-opacity="1" stop-color="rgb(23.41156%, 52.311707%, 79.110718%)" offset="0.4375"/><stop stop-opacity="1" stop-color="rgb(23.498535%, 52.462769%, 79.199219%)" offset="0.445312"/><stop stop-opacity="1" stop-color="rgb(23.498535%, 52.69928%, 79.199219%)" offset="0.449219"/><stop stop-opacity="1" stop-color="rgb(23.498535%, 52.89917%, 79.199219%)" offset="0.453125"/><stop stop-opacity="1" stop-color="rgb(23.617554%, 53.09906%, 79.318237%)" offset="0.457031"/><stop stop-opacity="1" stop-color="rgb(23.738098%, 53.29895%, 79.437256%)" offset="0.460937"/><stop stop-opacity="1" stop-color="rgb(23.81897%, 53.49884%, 79.518127%)" offset="0.464844"/><stop stop-opacity="1" stop-color="rgb(23.899841%, 53.69873%, 79.598999%)" offset="0.46875"/><stop stop-opacity="1" stop-color="rgb(23.899841%, 53.796387%, 79.696655%)" offset="0.476562"/><stop stop-opacity="1" stop-color="rgb(23.899841%, 53.996277%, 79.896545%)" offset="0.484375"/><stop stop-opacity="1" stop-color="rgb(23.899841%, 54.26178%, 79.998779%)" offset="0.492188"/><stop stop-opacity="1" stop-color="rgb(23.899841%, 54.577637%, 79.998779%)" offset="0.5"/><stop stop-opacity="1" stop-color="rgb(23.899841%, 54.919434%, 80.104065%)" offset="0.507812"/><stop stop-opacity="1" stop-color="rgb(24.099731%, 55.203247%, 80.303955%)" offset="0.511719"/><stop stop-opacity="1" stop-color="rgb(24.299622%, 55.299377%, 80.39856%)" offset="0.515625"/><stop stop-opacity="1" stop-color="rgb(24.188232%, 55.499268%, 80.509949%)" offset="0.519531"/><stop stop-opacity="1" stop-color="rgb(24.076843%, 55.699158%, 80.621338%)" offset="0.523438"/><stop stop-opacity="1" stop-color="rgb(24.14856%, 55.699158%, 80.709839%)" offset="0.53125"/><stop stop-opacity="1" stop-color="rgb(24.259949%, 55.899048%, 80.799866%)" offset="0.535156"/><stop stop-opacity="1" stop-color="rgb(24.299622%, 56.098938%, 80.799866%)" offset="0.539062"/><stop stop-opacity="1" stop-color="rgb(24.299622%, 56.298828%, 80.999756%)" offset="0.542969"/><stop stop-opacity="1" stop-color="rgb(24.299622%, 56.498718%, 81.199646%)" offset="0.546875"/><stop stop-opacity="1" stop-color="rgb(24.299622%, 56.698608%, 81.199646%)" offset="0.550781"/><stop stop-opacity="1" stop-color="rgb(24.299622%, 56.898499%, 81.199646%)" offset="0.554687"/><stop stop-opacity="1" stop-color="rgb(24.438477%, 56.898499%, 81.338501%)" offset="0.5625"/><stop stop-opacity="1" stop-color="rgb(24.638367%, 57.052612%, 81.538391%)" offset="0.570312"/><stop stop-opacity="1" stop-color="rgb(24.699402%, 57.402039%, 81.706238%)" offset="0.574219"/><stop stop-opacity="1" stop-color="rgb(24.699402%, 57.598877%, 81.814575%)" offset="0.578125"/><stop stop-opacity="1" stop-color="rgb(24.699402%, 57.798767%, 81.906128%)" offset="0.582031"/><stop stop-opacity="1" stop-color="rgb(24.699402%, 57.998657%, 81.999207%)" offset="0.585938"/><stop stop-opacity="1" stop-color="rgb(24.899292%, 58.085632%, 81.999207%)" offset="0.589844"/><stop stop-opacity="1" stop-color="rgb(25.099182%, 58.172607%, 81.999207%)" offset="0.59375"/><stop stop-opacity="1" stop-color="rgb(25.099182%, 58.285522%, 81.999207%)" offset="0.601562"/><stop stop-opacity="1" stop-color="rgb(25.099182%, 58.599854%, 82.113647%)" offset="0.605469"/><stop stop-opacity="1" stop-color="rgb(25.099182%, 58.799744%, 82.229614%)" offset="0.609375"/><stop stop-opacity="1" stop-color="rgb(25.099182%, 58.903503%, 82.313538%)" offset="0.617187"/><stop stop-opacity="1" stop-color="rgb(25.245667%, 59.103394%, 82.398987%)" offset="0.625"/><stop stop-opacity="1" stop-color="rgb(25.445557%, 59.399414%, 82.548523%)" offset="0.628906"/><stop stop-opacity="1" stop-color="rgb(25.498962%, 59.599304%, 82.699585%)" offset="0.632812"/><stop stop-opacity="1" stop-color="rgb(25.498962%, 59.671021%, 82.699585%)" offset="0.640625"/><stop stop-opacity="1" stop-color="rgb(25.579834%, 59.951782%, 82.899475%)" offset="0.644531"/><stop stop-opacity="1" stop-color="rgb(25.662231%, 60.162354%, 83.099365%)" offset="0.648437"/><stop stop-opacity="1" stop-color="rgb(25.779724%, 60.279846%, 83.099365%)" offset="0.65625"/><stop stop-opacity="1" stop-color="rgb(25.898743%, 60.543823%, 83.099365%)" offset="0.664062"/><stop stop-opacity="1" stop-color="rgb(25.898743%, 60.823059%, 83.299255%)" offset="0.667969"/><stop stop-opacity="1" stop-color="rgb(25.898743%, 60.957336%, 83.499146%)" offset="0.671875"/><stop stop-opacity="1" stop-color="rgb(25.898743%, 61.077881%, 83.499146%)" offset="0.679688"/><stop stop-opacity="1" stop-color="rgb(25.898743%, 61.328125%, 83.499146%)" offset="0.6875"/><stop stop-opacity="1" stop-color="rgb(26.098633%, 61.528015%, 83.299255%)" offset="0.691406"/><stop stop-opacity="1" stop-color="rgb(26.298523%, 61.599731%, 83.099365%)" offset="0.695312"/><stop stop-opacity="1" stop-color="rgb(26.298523%, 61.799622%, 83.013916%)" offset="0.699219"/><stop stop-opacity="1" stop-color="rgb(26.298523%, 61.999512%, 82.928467%)" offset="0.703125"/><stop stop-opacity="1" stop-color="rgb(26.298523%, 61.999512%, 82.814026%)" offset="0.71875"/><stop stop-opacity="1" stop-color="rgb(26.298523%, 62.199402%, 82.548523%)" offset="0.722656"/><stop stop-opacity="1" stop-color="rgb(26.298523%, 62.399292%, 82.398987%)" offset="0.726562"/><stop stop-opacity="1" stop-color="rgb(26.298523%, 62.467957%, 82.398987%)" offset="0.734375"/><stop stop-opacity="1" stop-color="rgb(26.298523%, 62.69989%, 82.398987%)" offset="0.742188"/><stop stop-opacity="1" stop-color="rgb(26.298523%, 62.980652%, 82.398987%)" offset="0.75"/><stop stop-opacity="1" stop-color="rgb(26.298523%, 63.223267%, 82.273865%)" offset="0.765625"/><stop stop-opacity="1" stop-color="rgb(26.298523%, 63.423157%, 82.073975%)" offset="0.773437"/><stop stop-opacity="1" stop-color="rgb(26.437378%, 63.638306%, 81.999207%)" offset="0.78125"/><stop stop-opacity="1" stop-color="rgb(26.638794%, 63.838196%, 81.999207%)" offset="0.789062"/><stop stop-opacity="1" stop-color="rgb(26.699829%, 64.099121%, 81.999207%)" offset="0.792969"/><stop stop-opacity="1" stop-color="rgb(26.699829%, 64.299011%, 81.999207%)" offset="0.796875"/><stop stop-opacity="1" stop-color="rgb(26.699829%, 64.498901%, 81.95343%)" offset="0.800781"/><stop stop-opacity="1" stop-color="rgb(26.699829%, 64.698792%, 81.907654%)" offset="0.804688"/><stop stop-opacity="1" stop-color="rgb(26.899719%, 64.698792%, 81.75354%)" offset="0.808594"/><stop stop-opacity="1" stop-color="rgb(27.099609%, 64.698792%, 81.599426%)" offset="0.8125"/><stop stop-opacity="1" stop-color="rgb(27.099609%, 64.826965%, 81.599426%)" offset="0.820312"/><stop stop-opacity="1" stop-color="rgb(27.099609%, 65.026855%, 81.599426%)" offset="0.828125"/><stop stop-opacity="1" stop-color="rgb(27.099609%, 65.22522%, 81.472778%)" offset="0.835938"/><stop stop-opacity="1" stop-color="rgb(27.220154%, 65.42511%, 81.272888%)" offset="0.84375"/><stop stop-opacity="1" stop-color="rgb(27.420044%, 65.699768%, 81.167603%)" offset="0.847656"/><stop stop-opacity="1" stop-color="rgb(27.49939%, 65.899658%, 81.137085%)" offset="0.851562"/><stop stop-opacity="1" stop-color="rgb(27.49939%, 65.899658%, 80.967712%)" offset="0.859375"/><stop stop-opacity="1" stop-color="rgb(27.49939%, 65.899658%, 80.799866%)" offset="0.867188"/><stop stop-opacity="1" stop-color="rgb(27.49939%, 66.148376%, 80.799866%)" offset="0.871094"/><stop stop-opacity="1" stop-color="rgb(27.49939%, 66.397095%, 80.799866%)" offset="0.875"/><stop stop-opacity="1" stop-color="rgb(27.49939%, 66.548157%, 80.685425%)" offset="0.890625"/><stop stop-opacity="1" stop-color="rgb(27.592468%, 66.822815%, 80.485535%)" offset="0.898437"/><stop stop-opacity="1" stop-color="rgb(27.798462%, 67.077637%, 80.39856%)" offset="0.90625"/><stop stop-opacity="1" stop-color="rgb(28.05481%, 67.353821%, 80.198669%)" offset="0.910156"/><stop stop-opacity="1" stop-color="rgb(28.199768%, 67.498779%, 79.998779%)" offset="0.914062"/><stop stop-opacity="1" stop-color="rgb(28.199768%, 67.498779%, 79.998779%)" offset="0.921875"/><stop stop-opacity="1" stop-color="rgb(28.305054%, 67.648315%, 79.891968%)" offset="0.9375"/><stop stop-opacity="1" stop-color="rgb(28.504944%, 67.913818%, 79.692078%)" offset="0.945312"/><stop stop-opacity="1" stop-color="rgb(28.599548%, 68.113708%, 79.598999%)" offset="0.953125"/><stop stop-opacity="1" stop-color="rgb(28.599548%, 68.313599%, 79.598999%)" offset="0.960938"/><stop stop-opacity="1" stop-color="rgb(28.599548%, 68.533325%, 79.399109%)" offset="0.964844"/><stop stop-opacity="1" stop-color="rgb(28.599548%, 68.638611%, 79.199219%)" offset="0.96875"/><stop stop-opacity="1" stop-color="rgb(28.703308%, 68.818665%, 79.199219%)" offset="0.976563"/><stop stop-opacity="1" stop-color="rgb(28.903198%, 68.998718%, 79.084778%)" offset="0.984375"/><stop stop-opacity="1" stop-color="rgb(29.118347%, 69.117737%, 78.884888%)" offset="0.992188"/><stop stop-opacity="1" stop-color="rgb(29.318237%, 69.430542%, 78.799438%)" offset="1"/></linearGradient><clipPath id="985e4ae47c"><path d="M 147 63.976562 L 171 63.976562 L 171 87 L 147 87 Z M 147 63.976562 " clip-rule="nonzero"/></clipPath></defs><g fill="#062c66" fill-opacity="1"><g transform="translate(49.453126, 260.752015)"><g><path d="M 44.558594 0 L 28.871094 -25.863281 L 43.269531 -50.148438 L 31.378906 -50.148438 L 22.351562 -34.671875 L 13.398438 -50.148438 L 1.21875 -50.148438 L 15.832031 -26.292969 L 0.214844 0 L 12.464844 0 L 22.496094 -17.195312 L 32.382812 0 Z M 44.558594 0 "/></g></g></g><g fill="#062c66" fill-opacity="1"><g transform="translate(94.226119, 260.752015)"><g><path d="M 4.371094 -15.042969 L 27.726562 -15.042969 L 27.726562 -25.144531 L 4.371094 -25.144531 Z M 4.371094 -15.042969 "/></g></g></g><g fill="#062c66" fill-opacity="1"><g transform="translate(126.391041, 260.752015)"><g><path d="M 35.675781 -40.046875 L 35.675781 -50.148438 L 5.730469 -50.148438 L 5.730469 0 L 16.550781 0 L 16.550781 -19.199219 L 33.8125 -19.199219 L 33.8125 -29.015625 L 16.550781 -29.015625 L 16.550781 -40.046875 Z M 35.675781 -40.046875 "/></g></g></g><g fill="#062c66" fill-opacity="1"><g transform="translate(164.71673, 260.752015)"><g><path d="M 5.015625 -43.84375 L 15.402344 -43.84375 L 15.402344 -53.515625 L 5.015625 -53.515625 Z M 5.015625 0 L 15.472656 0 L 15.472656 -38.6875 L 5.015625 -38.6875 Z M 5.015625 0 "/></g></g></g><g fill="#062c66" fill-opacity="1"><g transform="translate(185.204857, 260.752015)"><g><path d="M 27.007812 -39.546875 C 21.777344 -39.546875 17.121094 -37.324219 14.183594 -33.886719 L 12.179688 -38.6875 L 5.015625 -38.6875 L 5.015625 0 L 15.472656 0 L 15.472656 -20.273438 C 15.472656 -26.507812 18.769531 -30.375 24.144531 -30.375 C 28.65625 -30.375 30.875 -27.582031 30.875 -21.707031 L 30.875 0 L 41.335938 0 L 41.335938 -23.425781 C 41.335938 -33.242188 35.820312 -39.546875 27.007812 -39.546875 Z M 27.007812 -39.546875 "/></g></g></g><g fill="#062c66" fill-opacity="1"><g transform="translate(231.124044, 260.752015)"><g><path d="M 5.015625 -43.84375 L 15.402344 -43.84375 L 15.402344 -53.515625 L 5.015625 -53.515625 Z M 5.015625 0 L 15.472656 0 L 15.472656 -38.6875 L 5.015625 -38.6875 Z M 5.015625 0 "/></g></g></g><g fill="#062c66" fill-opacity="1"><g transform="translate(251.612171, 260.752015)"><g><path d="M 23.929688 -9.3125 C 20.058594 -9.3125 17.910156 -11.460938 17.910156 -15.1875 L 17.910156 -30.230469 L 28.441406 -30.230469 L 28.441406 -38.6875 L 17.765625 -38.6875 L 17.765625 -48.714844 L 15.761719 -48.714844 L 0.5 -32.523438 L 0.5 -30.230469 L 7.449219 -30.230469 L 7.449219 -13.753906 C 7.449219 -5.230469 12.679688 0 21.207031 0 L 28.65625 0 L 28.65625 -9.3125 Z M 23.929688 -9.3125 "/></g></g></g><g fill="#062c66" fill-opacity="1"><g transform="translate(282.416002, 260.752015)"><g><path d="M 31.738281 -38.6875 L 22.066406 -14.828125 L 11.75 -38.6875 L 0.359375 -38.6875 L 16.765625 -2.9375 L 16.621094 -2.652344 C 14.257812 3.222656 12.96875 4.585938 7.878906 4.585938 L 4.296875 4.585938 L 4.296875 13.96875 L 8.597656 13.96875 C 17.265625 13.96875 21.347656 10.03125 26.003906 -0.5 L 42.839844 -38.6875 Z M 31.738281 -38.6875 "/></g></g></g><g fill="#f2621a" fill-opacity="1"><g transform="translate(89.085907, 288.086554)"><g><path d="M 5.828125 0.140625 C 4.847656 0.140625 3.957031 -0.0703125 3.15625 -0.5 C 2.363281 -0.9375 1.738281 -1.535156 1.28125 -2.296875 C 0.832031 -3.066406 0.609375 -3.929688 0.609375 -4.890625 C 0.609375 -5.847656 0.835938 -6.707031 1.296875 -7.46875 C 1.753906 -8.226562 2.378906 -8.820312 3.171875 -9.25 C 3.972656 -9.6875 4.863281 -9.90625 5.84375 -9.90625 C 6.644531 -9.90625 7.375 -9.765625 8.03125 -9.484375 C 8.695312 -9.203125 9.257812 -8.800781 9.71875 -8.28125 L 8.546875 -7.171875 C 7.835938 -7.929688 6.96875 -8.3125 5.9375 -8.3125 C 5.257812 -8.3125 4.65625 -8.164062 4.125 -7.875 C 3.59375 -7.582031 3.175781 -7.175781 2.875 -6.65625 C 2.582031 -6.132812 2.4375 -5.546875 2.4375 -4.890625 C 2.4375 -4.222656 2.582031 -3.628906 2.875 -3.109375 C 3.175781 -2.585938 3.59375 -2.179688 4.125 -1.890625 C 4.65625 -1.597656 5.257812 -1.453125 5.9375 -1.453125 C 6.96875 -1.453125 7.835938 -1.835938 8.546875 -2.609375 L 9.71875 -1.5 C 9.257812 -0.96875 8.695312 -0.5625 8.03125 -0.28125 C 7.363281 0 6.628906 0.140625 5.828125 0.140625 Z M 5.828125 0.140625 "/></g></g></g><g fill="#f2621a" fill-opacity="1"><g transform="translate(110.403055, 288.086554)"><g><path d="M 5.875 0.140625 C 4.875 0.140625 3.972656 -0.0703125 3.171875 -0.5 C 2.378906 -0.9375 1.753906 -1.535156 1.296875 -2.296875 C 0.835938 -3.066406 0.609375 -3.929688 0.609375 -4.890625 C 0.609375 -5.835938 0.835938 -6.691406 1.296875 -7.453125 C 1.753906 -8.222656 2.378906 -8.820312 3.171875 -9.25 C 3.972656 -9.6875 4.875 -9.90625 5.875 -9.90625 C 6.875 -9.90625 7.769531 -9.6875 8.5625 -9.25 C 9.363281 -8.820312 9.992188 -8.226562 10.453125 -7.46875 C 10.910156 -6.707031 11.140625 -5.847656 11.140625 -4.890625 C 11.140625 -3.929688 10.910156 -3.066406 10.453125 -2.296875 C 9.992188 -1.535156 9.363281 -0.9375 8.5625 -0.5 C 7.769531 -0.0703125 6.875 0.140625 5.875 0.140625 Z M 5.875 -1.453125 C 6.519531 -1.453125 7.101562 -1.597656 7.625 -1.890625 C 8.144531 -2.179688 8.554688 -2.585938 8.859375 -3.109375 C 9.160156 -3.640625 9.3125 -4.234375 9.3125 -4.890625 C 9.3125 -5.535156 9.160156 -6.117188 8.859375 -6.640625 C 8.554688 -7.171875 8.144531 -7.582031 7.625 -7.875 C 7.101562 -8.164062 6.519531 -8.3125 5.875 -8.3125 C 5.21875 -8.3125 4.628906 -8.164062 4.109375 -7.875 C 3.585938 -7.582031 3.175781 -7.171875 2.875 -6.640625 C 2.582031 -6.117188 2.4375 -5.535156 2.4375 -4.890625 C 2.4375 -4.234375 2.582031 -3.640625 2.875 -3.109375 C 3.175781 -2.585938 3.585938 -2.179688 4.109375 -1.890625 C 4.628906 -1.597656 5.21875 -1.453125 5.875 -1.453125 Z M 5.875 -1.453125 "/></g></g></g><g fill="#f2621a" fill-opacity="1"><g transform="translate(133.325259, 288.086554)"><g><path d="M 9.984375 -9.765625 L 9.984375 0 L 8.5 0 L 3.109375 -6.609375 L 3.109375 0 L 1.3125 0 L 1.3125 -9.765625 L 2.796875 -9.765625 L 8.1875 -3.15625 L 8.1875 -9.765625 Z M 9.984375 -9.765625 "/></g></g></g><g fill="#f2621a" fill-opacity="1"><g transform="translate(155.800833, 288.086554)"><g><path d="M 4.34375 0.140625 C 3.582031 0.140625 2.851562 0.0351562 2.15625 -0.171875 C 1.457031 -0.390625 0.898438 -0.675781 0.484375 -1.03125 L 1.109375 -2.4375 C 1.515625 -2.125 2.003906 -1.867188 2.578125 -1.671875 C 3.160156 -1.472656 3.75 -1.375 4.34375 -1.375 C 5.0625 -1.375 5.597656 -1.488281 5.953125 -1.71875 C 6.316406 -1.945312 6.5 -2.253906 6.5 -2.640625 C 6.5 -2.921875 6.398438 -3.148438 6.203125 -3.328125 C 6.003906 -3.503906 5.75 -3.644531 5.4375 -3.75 C 5.132812 -3.851562 4.71875 -3.972656 4.1875 -4.109375 C 3.4375 -4.285156 2.832031 -4.457031 2.375 -4.625 C 1.914062 -4.800781 1.519531 -5.078125 1.1875 -5.453125 C 0.863281 -5.835938 0.703125 -6.347656 0.703125 -6.984375 C 0.703125 -7.523438 0.847656 -8.015625 1.140625 -8.453125 C 1.429688 -8.898438 1.867188 -9.253906 2.453125 -9.515625 C 3.046875 -9.773438 3.769531 -9.90625 4.625 -9.90625 C 5.226562 -9.90625 5.816406 -9.828125 6.390625 -9.671875 C 6.960938 -9.523438 7.460938 -9.316406 7.890625 -9.046875 L 7.3125 -7.625 C 6.882812 -7.882812 6.4375 -8.078125 5.96875 -8.203125 C 5.507812 -8.335938 5.0625 -8.40625 4.625 -8.40625 C 3.90625 -8.40625 3.367188 -8.28125 3.015625 -8.03125 C 2.671875 -7.789062 2.5 -7.472656 2.5 -7.078125 C 2.5 -6.796875 2.597656 -6.566406 2.796875 -6.390625 C 2.992188 -6.210938 3.242188 -6.070312 3.546875 -5.96875 C 3.859375 -5.863281 4.28125 -5.75 4.8125 -5.625 C 5.539062 -5.457031 6.132812 -5.28125 6.59375 -5.09375 C 7.0625 -4.914062 7.457031 -4.640625 7.78125 -4.265625 C 8.113281 -3.898438 8.28125 -3.398438 8.28125 -2.765625 C 8.28125 -2.222656 8.132812 -1.734375 7.84375 -1.296875 C 7.550781 -0.859375 7.109375 -0.507812 6.515625 -0.25 C 5.921875 0.0078125 5.195312 0.140625 4.34375 0.140625 Z M 4.34375 0.140625 "/></g></g></g><g fill="#f2621a" fill-opacity="1"><g transform="translate(175.750207, 288.086554)"><g><path d="M 5.515625 0.140625 C 4.160156 0.140625 3.109375 -0.238281 2.359375 -1 C 1.609375 -1.757812 1.234375 -2.84375 1.234375 -4.25 L 1.234375 -9.765625 L 3.046875 -9.765625 L 3.046875 -4.328125 C 3.046875 -2.410156 3.875 -1.453125 5.53125 -1.453125 C 7.175781 -1.453125 8 -2.410156 8 -4.328125 L 8 -9.765625 L 9.78125 -9.765625 L 9.78125 -4.25 C 9.78125 -2.84375 9.40625 -1.757812 8.65625 -1 C 7.90625 -0.238281 6.859375 0.140625 5.515625 0.140625 Z M 5.515625 0.140625 "/></g></g></g><g fill="#f2621a" fill-opacity="1"><g transform="translate(197.932683, 288.086554)"><g><path d="M 1.3125 -9.765625 L 3.125 -9.765625 L 3.125 -1.53125 L 8.234375 -1.53125 L 8.234375 0 L 1.3125 0 Z M 1.3125 -9.765625 "/></g></g></g><g fill="#f2621a" fill-opacity="1"><g transform="translate(217.46334, 288.086554)"><g><path d="M 3.296875 -8.234375 L 0.0625 -8.234375 L 0.0625 -9.765625 L 8.34375 -9.765625 L 8.34375 -8.234375 L 5.109375 -8.234375 L 5.109375 0 L 3.296875 0 Z M 3.296875 -8.234375 "/></g></g></g><g fill="#f2621a" fill-opacity="1"><g transform="translate(237.035872, 288.086554)"><g><path d="M 1.3125 -9.765625 L 3.125 -9.765625 L 3.125 0 L 1.3125 0 Z M 1.3125 -9.765625 "/></g></g></g><g fill="#f2621a" fill-opacity="1"><g transform="translate(252.658578, 288.086554)"><g><path d="M 9.984375 -9.765625 L 9.984375 0 L 8.5 0 L 3.109375 -6.609375 L 3.109375 0 L 1.3125 0 L 1.3125 -9.765625 L 2.796875 -9.765625 L 8.1875 -3.15625 L 8.1875 -9.765625 Z M 9.984375 -9.765625 "/></g></g></g><g fill="#f2621a" fill-opacity="1"><g transform="translate(275.134155, 288.086554)"><g><path d="M 7.984375 -5 L 9.703125 -5 L 9.703125 -1.109375 C 9.191406 -0.703125 8.601562 -0.390625 7.9375 -0.171875 C 7.269531 0.0351562 6.582031 0.140625 5.875 0.140625 C 4.875 0.140625 3.972656 -0.0703125 3.171875 -0.5 C 2.378906 -0.9375 1.753906 -1.535156 1.296875 -2.296875 C 0.835938 -3.066406 0.609375 -3.929688 0.609375 -4.890625 C 0.609375 -5.847656 0.835938 -6.707031 1.296875 -7.46875 C 1.753906 -8.226562 2.382812 -8.820312 3.1875 -9.25 C 3.988281 -9.6875 4.894531 -9.90625 5.90625 -9.90625 C 6.71875 -9.90625 7.457031 -9.769531 8.125 -9.5 C 8.800781 -9.226562 9.367188 -8.832031 9.828125 -8.3125 L 8.671875 -7.203125 C 7.929688 -7.941406 7.035156 -8.3125 5.984375 -8.3125 C 5.296875 -8.3125 4.679688 -8.164062 4.140625 -7.875 C 3.609375 -7.59375 3.191406 -7.191406 2.890625 -6.671875 C 2.585938 -6.148438 2.4375 -5.554688 2.4375 -4.890625 C 2.4375 -4.234375 2.585938 -3.644531 2.890625 -3.125 C 3.191406 -2.601562 3.609375 -2.191406 4.140625 -1.890625 C 4.679688 -1.597656 5.289062 -1.453125 5.96875 -1.453125 C 6.726562 -1.453125 7.398438 -1.617188 7.984375 -1.953125 Z M 7.984375 -5 "/></g></g></g><g clip-path="url(#75cc364d93)"><g clip-path="url(#29e5310ae3)"><g clip-path="url(#eca866219b)"><g clip-path="url(#d130dd63ed)"><path fill="url(#0a402abc96)" d="M 150.210938 31.070312 L 64.378906 164.738281 L 207.058594 257.101562 L 292.890625 123.433594 Z M 150.210938 31.070312 " fill-rule="nonzero"/></g></g></g></g><g clip-path="url(#65345e99e9)"><g clip-path="url(#d279dd2bfe)"><g clip-path="url(#01a8d72f26)"><g clip-path="url(#70e9198f77)"><path fill="url(#2ba8dbef9c)" d="M 156.78125 114.058594 L 123.902344 144.121094 L 155.023438 178.433594 L 187.902344 148.371094 Z M 156.78125 114.058594 " fill-rule="nonzero"/></g></g></g></g><g clip-path="url(#48e9c25dd6)"><g clip-path="url(#a16b213396)"><g clip-path="url(#afff390a72)"><g clip-path="url(#f3d8addee8)"><path fill="url(#f1cfa2fa62)" d="M 221.914062 35.671875 L 114.492188 133.886719 L 213.070312 242.578125 L 320.492188 144.359375 Z M 221.914062 35.671875 " fill-rule="nonzero"/></g></g></g></g><path stroke-linecap="butt" transform="matrix(0.0310203, 0, 0, -0.0311462, 32.219138, 285.31914)" fill="none" stroke-linejoin="miter" d="M 6396.753451 2928.065129 L 6396.375674 2928.065129 " stroke="#ef3021" stroke-width="30.101999" stroke-opacity="1" stroke-miterlimit="10"/><g clip-path="url(#985e4ae47c)"><path fill="#e61f26" d="M 170.113281 75.332031 C 170.113281 81.609375 165.042969 86.699219 158.789062 86.699219 C 152.535156 86.699219 147.464844 81.609375 147.464844 75.332031 C 147.464844 69.050781 152.535156 63.960938 158.789062 63.960938 C 165.042969 63.960938 170.113281 69.050781 170.113281 75.332031 " fill-opacity="1" fill-rule="nonzero"/></g></svg>