<svg width="207" height="175" viewBox="0 0 207 175" fill="none" xmlns="http://www.w3.org/2000/svg">
<mask id="mask0_5234_7223" style="mask-type:luminance" maskUnits="userSpaceOnUse" x="0" y="40" width="184" height="134">
<path d="M0 40.0312H183.641V173.859H0V40.0312Z" fill="white"/>
</mask>
<g mask="url(#mask0_5234_7223)">
<mask id="mask1_5234_7223" style="mask-type:luminance" maskUnits="userSpaceOnUse" x="0" y="40" width="184" height="134">
<path d="M161.172 173.526H161.156C158.948 172.901 156.88 172.115 154.953 171.255C148.807 168.484 143.859 164.87 139.37 161.188L137.589 159.667L136.161 158.396L133.292 155.854C131.297 153.964 129.214 151.995 127.359 150.099C123.568 146.307 119.984 142.354 116.479 138.401C113.036 134.411 109.724 130.349 106.552 126.271C100.141 118.151 94.3698 109.833 88.6511 101.786C85.8177 97.7604 83.0209 93.7708 80.2448 89.8021C78.8542 87.8542 77.4844 85.901 76.1094 83.974C75.4167 83.0417 74.7396 82.1458 74.0625 81.2344C73.5782 80.5938 73.099 79.9635 72.5834 79.3229C72.4063 79.0677 72.2084 78.8385 72.0104 78.5885C66.3802 71.5417 60.3959 65.1719 53.6459 60.3438C46.8594 55.5469 39.5521 52.2917 31.5573 51.1667C30.7344 51.1146 29.9375 51.0625 29.099 50.9688C28.2084 51.0052 27.3334 51.026 26.4427 51.0625C25.6094 51.2187 24.7136 51.2552 23.8802 51.4688C23.0782 51.7396 22.1875 51.8281 21.4375 52.2031C18.25 53.3854 15.4011 55.4583 13.1042 58.1979C10.823 60.9323 9.10941 64.2604 7.88024 67.75C6.63545 71.2344 5.93753 74.9063 5.38545 78.6771C3.23441 93.4479 4.92191 107.635 8.55732 119.406C10.3959 125.307 12.6042 130.693 15.1302 135.432C17.6615 140.115 20.724 144.104 24.4115 146.594C28.0625 149.094 32.1771 149.99 35.5834 149.542C39.0209 149.063 41.6042 147.38 43.4896 145.964C45.3646 144.479 46.5886 143.089 47.375 142.156C47.4271 142.083 47.4844 142.031 47.5365 141.979C47.4844 142.031 47.4479 142.104 47.3959 142.156C46.6094 143.12 45.4167 144.536 43.5469 146.036C41.6563 147.469 39.0938 149.203 35.6198 149.74C32.1459 150.224 28.0105 149.344 24.1615 146.969C20.3177 144.552 17.0209 140.583 14.2917 135.896C11.6042 131.193 8.94795 125.932 6.76045 120.01C4.56774 114.109 2.75003 107.615 1.50524 100.604C0.380241 93.5573 -0.276009 86.0833 0.114616 78.1198C0.453157 70.4479 1.5417 61.4688 6.72399 53.526C9.25524 49.5781 12.9219 45.9427 17.5 43.5677C18.6042 42.8854 19.8334 42.526 21.0261 41.9896C22.2396 41.5469 23.4896 41.2552 24.7344 40.901C26 40.651 27.2605 40.4687 28.5469 40.276C29.9011 40.2031 31.2709 40.1302 32.6407 40.0938C33.75 40.1302 34.8334 40.1875 35.9375 40.2188C36.1355 40.2396 35.8125 40.1875 36.4219 40.276L36.6511 40.2917L37.1146 40.3438L38.0209 40.4688L39.8594 40.7031C41.0886 40.8281 42.2813 41.151 43.5104 41.3802C44.7396 41.599 45.9532 41.9375 47.1615 42.276C51.9896 43.6354 56.7084 45.5885 61.1823 48C68.1667 51.8125 74.5782 56.625 80.4584 61.9896C81.3802 62.8125 82.2917 63.6719 83.1823 64.526C83.8959 65.224 84.5886 65.9219 85.2813 66.6198C87.0469 68.3906 88.8646 70.3229 90.5729 72.1823L93.0677 74.9583L95.4896 77.75C98.6823 81.4688 101.885 85.224 105.109 88.9948C111.453 96.5469 117.833 104.094 124.281 111.448C130.781 118.776 137.406 125.88 144.411 132.479C146.156 134.198 147.865 135.609 149.573 137.219L152.458 139.74L153.906 140.995L155.042 141.943C158.448 144.677 161.938 147 165.125 148.401C166.693 149.13 168.208 149.667 169.51 149.885C170.151 149.99 170.792 150.115 171.344 150.099C171.63 150.115 171.917 150.135 172.162 150.078C172.359 150.063 172.771 150.078 172.771 150.042C172.807 150.026 172.823 150.042 172.859 150.042L172.912 150.078C172.927 150.078 172.912 150.115 173.125 150.042L174.552 149.615C174.552 149.615 174.589 149.615 174.604 149.594C174.62 149.594 174.641 149.594 174.677 149.578C174.729 149.563 174.781 149.542 174.854 149.526L174.693 149.563L174.922 149.469L175.458 149.24C175.833 149.115 176.188 148.969 176.474 148.792C177.813 148.203 178.771 147.484 179.594 146.734C180.396 145.984 181.052 145.141 181.604 144.068C182.141 142.979 182.547 141.62 182.854 140.047C183.318 137.74 183.385 134.932 183.172 131.943C183.958 141.531 184.135 169.198 161.172 173.526Z" fill="white"/>
</mask>
<g mask="url(#mask1_5234_7223)">
<mask id="mask2_5234_7223" style="mask-type:luminance" maskUnits="userSpaceOnUse" x="0" y="40" width="184" height="134">
<path d="M161.172 173.526H161.156C158.948 172.901 156.88 172.115 154.953 171.255C148.807 168.484 143.859 164.87 139.37 161.188L137.589 159.667L136.161 158.396L133.292 155.854C131.297 153.964 129.214 151.995 127.359 150.099C123.568 146.307 119.984 142.354 116.479 138.401C113.036 134.411 109.724 130.349 106.552 126.271C100.141 118.151 94.3698 109.833 88.6511 101.786C85.8177 97.7604 83.0209 93.7708 80.2448 89.8021C78.8542 87.8542 77.4844 85.901 76.1094 83.974C75.4167 83.0417 74.7396 82.1458 74.0625 81.2344C73.5782 80.5938 73.099 79.9635 72.5834 79.3229C72.4063 79.0677 72.2084 78.8385 72.0104 78.5885C66.3802 71.5417 60.3959 65.1719 53.6459 60.3438C46.8594 55.5469 39.5521 52.2917 31.5573 51.1667C30.7344 51.1146 29.9375 51.0625 29.099 50.9688C28.2084 51.0052 27.3334 51.026 26.4427 51.0625C25.6094 51.2187 24.7136 51.2552 23.8802 51.4688C23.0782 51.7396 22.1875 51.8281 21.4375 52.2031C18.25 53.3854 15.4011 55.4583 13.1042 58.1979C10.823 60.9323 9.10941 64.2604 7.88024 67.75C6.63545 71.2344 5.93753 74.9063 5.38545 78.6771C3.23441 93.4479 4.92191 107.635 8.55732 119.406C10.3959 125.307 12.6042 130.693 15.1302 135.432C17.6615 140.115 20.724 144.104 24.4115 146.594C28.0625 149.094 32.1771 149.99 35.5834 149.542C39.0209 149.063 41.6042 147.38 43.4896 145.964C45.3646 144.479 46.5886 143.089 47.375 142.156C47.4271 142.083 47.4844 142.031 47.5365 141.979C47.4844 142.031 47.4479 142.104 47.3959 142.156C46.6094 143.12 45.4167 144.536 43.5469 146.036C41.6563 147.469 39.0938 149.203 35.6198 149.74C32.1459 150.224 28.0105 149.344 24.1615 146.969C20.3177 144.552 17.0209 140.583 14.2917 135.896C11.6042 131.193 8.94795 125.932 6.76045 120.01C4.56774 114.109 2.75003 107.615 1.50524 100.604C0.380241 93.5573 -0.276009 86.0833 0.114616 78.1198C0.453157 70.4479 1.5417 61.4688 6.72399 53.526C9.25524 49.5781 12.9219 45.9427 17.5 43.5677C18.6042 42.8854 19.8334 42.526 21.0261 41.9896C22.2396 41.5469 23.4896 41.2552 24.7344 40.901C26 40.651 27.2605 40.4687 28.5469 40.276C29.9011 40.2031 31.2709 40.1302 32.6407 40.0938C33.75 40.1302 34.8334 40.1875 35.9375 40.2188C36.1355 40.2396 35.8125 40.1875 36.4219 40.276L36.6511 40.2917L37.1146 40.3438L38.0209 40.4688L39.8594 40.7031C41.0886 40.8281 42.2813 41.151 43.5104 41.3802C44.7396 41.599 45.9532 41.9375 47.1615 42.276C51.9896 43.6354 56.7084 45.5885 61.1823 48C68.1667 51.8125 74.5782 56.625 80.4584 61.9896C81.3802 62.8125 82.2917 63.6719 83.1823 64.526C83.8959 65.224 84.5886 65.9219 85.2813 66.6198C87.0469 68.3906 88.8646 70.3229 90.5729 72.1823L93.0677 74.9583L95.4896 77.75C98.6823 81.4688 101.885 85.224 105.109 88.9948C111.453 96.5469 117.833 104.094 124.281 111.448C130.781 118.776 137.406 125.88 144.411 132.479C146.156 134.198 147.865 135.609 149.573 137.219L152.458 139.74L153.906 140.995L155.042 141.943C158.448 144.677 161.938 147 165.125 148.401C166.693 149.13 168.208 149.667 169.51 149.885C170.151 149.99 170.792 150.115 171.344 150.099C171.63 150.115 171.917 150.135 172.162 150.078C172.359 150.063 172.771 150.078 172.771 150.042C172.807 150.026 172.823 150.042 172.859 150.042L172.912 150.078C172.927 150.078 172.912 150.115 173.125 150.042L174.552 149.615C174.552 149.615 174.589 149.615 174.604 149.594C174.62 149.594 174.641 149.594 174.677 149.578C174.729 149.563 174.781 149.542 174.854 149.526L174.693 149.563L174.922 149.469L175.458 149.24C175.833 149.115 176.188 148.969 176.474 148.792C177.813 148.203 178.771 147.484 179.594 146.734C180.396 145.984 181.052 145.141 181.604 144.068C182.141 142.979 182.547 141.62 182.854 140.047C183.318 137.74 183.385 134.932 183.172 131.943C183.958 141.531 184.135 169.198 161.172 173.526Z" fill="white"/>
</mask>
<g mask="url(#mask2_5234_7223)">
<mask id="mask3_5234_7223" style="mask-type:luminance" maskUnits="userSpaceOnUse" x="-61" y="-45" width="306" height="303">
<path d="M53.8699 -44.2292L-60.802 134.349L129.984 257.854L244.656 79.276L53.8699 -44.2292Z" fill="white"/>
</mask>
<g mask="url(#mask3_5234_7223)">
<path d="M53.922 -43.875L-60.5208 134.349L129.719 257.5L244.162 79.276L53.922 -43.875Z" fill="url(#paint0_linear_5234_7223)"/>
</g>
</g>
</g>
</g>
<mask id="mask4_5234_7223" style="mask-type:luminance" maskUnits="userSpaceOnUse" x="48" y="79" width="27" height="62">
<path d="M48.8071 79.1772H74.4478V140.224H48.8071V79.1772Z" fill="white"/>
</mask>
<g mask="url(#mask4_5234_7223)">
<mask id="mask5_5234_7223" style="mask-type:luminance" maskUnits="userSpaceOnUse" x="48" y="79" width="27" height="62">
<path d="M72.5831 79.3231C71.8696 81.0731 71.1769 82.7918 70.4998 84.4741C68.1977 90.3022 66.2915 95.8283 64.4425 100.891C62.6404 105.99 60.9113 110.625 59.505 114.896C56.8331 123.448 54.4477 130.063 52.2758 134.36C51.2238 136.505 50.2446 138.078 49.604 139.115C49.3331 139.49 49.1196 139.813 48.9581 140.063C49.1404 139.828 49.354 139.511 49.6196 139.136C50.281 138.099 51.2758 136.542 52.3435 134.391C53.4321 132.245 54.6404 129.547 55.8748 126.292C57.1352 123.037 58.3644 119.245 59.9165 115.042C63.1404 106.703 67.0415 96.5106 72.2238 85.2033C72.8123 83.9012 73.4373 82.5783 74.0623 81.2345C73.5779 80.5939 73.0988 79.9637 72.5831 79.3231Z" fill="white"/>
</mask>
<g mask="url(#mask5_5234_7223)">
<mask id="mask6_5234_7223" style="mask-type:luminance" maskUnits="userSpaceOnUse" x="48" y="79" width="27" height="62">
<path d="M72.5831 79.3231C71.8696 81.0731 71.1769 82.7918 70.4998 84.4741C68.1977 90.3022 66.2915 95.8283 64.4425 100.891C62.6404 105.99 60.9113 110.625 59.505 114.896C56.8331 123.448 54.4477 130.063 52.2758 134.36C51.2238 136.505 50.2446 138.078 49.604 139.115C49.3331 139.49 49.1196 139.813 48.9581 140.063C49.1404 139.828 49.354 139.511 49.6196 139.136C50.281 138.099 51.2758 136.542 52.3435 134.391C53.4321 132.245 54.6404 129.547 55.8748 126.292C57.1352 123.037 58.3644 119.245 59.9165 115.042C63.1404 106.703 67.0415 96.5106 72.2238 85.2033C72.8123 83.9012 73.4373 82.5783 74.0623 81.2345C73.5779 80.5939 73.0988 79.9637 72.5831 79.3231Z" fill="white"/>
</mask>
<g mask="url(#mask6_5234_7223)">
<mask id="mask7_5234_7223" style="mask-type:luminance" maskUnits="userSpaceOnUse" x="18" y="66" width="87" height="87">
<path d="M62.682 66.7762L18.8435 106.86L60.3383 152.61L104.177 112.526L62.682 66.7762Z" fill="white"/>
</mask>
<g mask="url(#mask7_5234_7223)">
<path d="M62.682 66.7762L18.8435 106.86L60.3383 152.61L104.177 112.526L62.682 66.7762Z" fill="url(#paint1_linear_5234_7223)"/>
</g>
</g>
</g>
</g>
<mask id="mask8_5234_7223" style="mask-type:luminance" maskUnits="userSpaceOnUse" x="80" y="25" width="127" height="150">
<path d="M80.3071 25.3647H206.802V174.985H80.3071V25.3647Z" fill="white"/>
</mask>
<g mask="url(#mask8_5234_7223)">
<mask id="mask9_5234_7223" style="mask-type:luminance" maskUnits="userSpaceOnUse" x="80" y="25" width="127" height="150">
<path d="M206.422 143.552C205.974 146.985 205.083 150.599 203.536 154.141C201.969 157.698 199.687 161.115 196.906 163.979C194.146 166.823 190.943 169.167 187.713 170.807C186.896 171.276 186.094 171.636 185.276 171.99L184.047 172.511L183.443 172.761C183.354 172.797 183.318 172.797 183.318 172.813C183.245 172.849 183.047 172.922 182.479 173.12L182.245 173.188L180.427 173.761C180.338 173.797 180 173.886 179.719 173.943L178.828 174.156L177.041 174.516C171.255 175.479 165.911 174.87 161.172 173.526C184.135 169.198 183.958 141.531 183.172 131.943V131.87C183.135 131.422 183.083 131.011 183.047 130.656C183.031 130.474 183.01 130.297 182.995 130.156C182.979 129.834 182.943 129.563 182.906 129.349C182.854 128.901 182.818 128.672 182.818 128.672C182.213 124.469 181.234 120.047 179.969 115.615C178.719 111.156 177.151 106.703 175.568 102.125C173.927 97.4377 172.38 93.1304 170.594 88.7814C168.87 84.4741 167.031 80.271 165.021 76.2241C162.989 72.1825 160.854 68.2658 158.5 64.5627C156.13 60.8075 153.687 57.4273 150.875 54.0106C145.39 47.4273 139.172 41.6877 132.364 38.146C131.937 37.9325 131.635 37.7346 131.12 37.5002L129.625 36.8387L127.182 35.9481C125.474 35.4637 123.724 35.0679 121.963 34.9637C118.453 34.7137 114.875 35.3387 111.453 36.6616C104.63 39.4012 98.6092 44.4585 93.7446 50.0419C89.7185 54.6044 86.229 59.5939 83.1821 64.5262C82.2915 63.6721 81.38 62.8127 80.4581 61.9898C83.0727 56.9429 86.0831 51.8127 89.6665 46.7294C94.3175 40.3804 100.036 33.9429 108.177 29.5627C112.198 27.3804 116.922 25.8596 121.927 25.5887C124.437 25.4116 126.969 25.6252 129.463 26.0366L131.312 26.4481L132.245 26.6616L132.724 26.771L132.953 26.8231C133.078 26.8596 132.989 26.8075 133.291 26.9116L134.859 27.396C135.375 27.5366 136.052 27.8075 136.64 28.021C145.979 31.4898 154.01 37.4116 161.208 44.12C164.734 47.4116 168.265 51.2033 171.432 55.0835C174.62 58.9846 177.599 63.0991 180.338 67.37C183.099 71.646 185.666 76.0679 188.057 80.5731C190.406 85.0627 192.651 89.8179 194.713 94.2762C196.854 98.8544 198.885 103.662 200.755 108.693C202.625 113.719 204.318 119.011 205.443 124.735C206.547 130.459 207.291 136.646 206.422 143.552Z" fill="white"/>
</mask>
<g mask="url(#mask9_5234_7223)">
<mask id="mask10_5234_7223" style="mask-type:luminance" maskUnits="userSpaceOnUse" x="80" y="25" width="127" height="150">
<path d="M206.422 143.552C205.974 146.985 205.083 150.599 203.536 154.141C201.969 157.698 199.687 161.115 196.906 163.979C194.146 166.823 190.943 169.167 187.713 170.807C186.896 171.276 186.094 171.636 185.276 171.99L184.047 172.511L183.443 172.761C183.354 172.797 183.318 172.797 183.318 172.813C183.245 172.849 183.047 172.922 182.479 173.12L182.245 173.188L180.427 173.761C180.338 173.797 180 173.886 179.719 173.943L178.828 174.156L177.041 174.516C171.255 175.479 165.911 174.87 161.172 173.526C184.135 169.198 183.958 141.531 183.172 131.943V131.87C183.135 131.422 183.083 131.011 183.047 130.656C183.031 130.474 183.01 130.297 182.995 130.156C182.979 129.834 182.943 129.563 182.906 129.349C182.854 128.901 182.818 128.672 182.818 128.672C182.213 124.469 181.234 120.047 179.969 115.615C178.719 111.156 177.151 106.703 175.568 102.125C173.927 97.4377 172.38 93.1304 170.594 88.7814C168.87 84.4741 167.031 80.271 165.021 76.2241C162.989 72.1825 160.854 68.2658 158.5 64.5627C156.13 60.8075 153.687 57.4273 150.875 54.0106C145.39 47.4273 139.172 41.6877 132.364 38.146C131.937 37.9325 131.635 37.7346 131.12 37.5002L129.625 36.8387L127.182 35.9481C125.474 35.4637 123.724 35.0679 121.963 34.9637C118.453 34.7137 114.875 35.3387 111.453 36.6616C104.63 39.4012 98.6092 44.4585 93.7446 50.0419C89.7185 54.6044 86.229 59.5939 83.1821 64.5262C82.2915 63.6721 81.38 62.8127 80.4581 61.9898C83.0727 56.9429 86.0831 51.8127 89.6665 46.7294C94.3175 40.3804 100.036 33.9429 108.177 29.5627C112.198 27.3804 116.922 25.8596 121.927 25.5887C124.437 25.4116 126.969 25.6252 129.463 26.0366L131.312 26.4481L132.245 26.6616L132.724 26.771L132.953 26.8231C133.078 26.8596 132.989 26.8075 133.291 26.9116L134.859 27.396C135.375 27.5366 136.052 27.8075 136.64 28.021C145.979 31.4898 154.01 37.4116 161.208 44.12C164.734 47.4116 168.265 51.2033 171.432 55.0835C174.62 58.9846 177.599 63.0991 180.338 67.37C183.099 71.646 185.666 76.0679 188.057 80.5731C190.406 85.0627 192.651 89.8179 194.713 94.2762C196.854 98.8544 198.885 103.662 200.755 108.693C202.625 113.719 204.318 119.011 205.443 124.735C206.547 130.459 207.291 136.646 206.422 143.552Z" fill="white"/>
</mask>
<g mask="url(#mask10_5234_7223)">
<mask id="mask11_5234_7223" style="mask-type:luminance" maskUnits="userSpaceOnUse" x="6" y="-38" width="276" height="277">
<path d="M149.797 -37.9842L6.05188 93.4429L137.953 238.875L281.698 107.448L149.797 -37.9842Z" fill="white"/>
</mask>
<g mask="url(#mask11_5234_7223)">
<path d="M149.526 -37.7394L6.29663 93.2137L137.734 238.136L280.963 107.177L149.526 -37.7394Z" fill="url(#paint2_linear_5234_7223)"/>
</g>
</g>
</g>
</g>
<mask id="mask12_5234_7223" style="mask-type:luminance" maskUnits="userSpaceOnUse" x="49" y="0" width="33" height="31">
<path d="M49.6406 0H81.6406V30.6979H49.6406V0Z" fill="white"/>
</mask>
<g mask="url(#mask12_5234_7223)">
<path d="M76.1953 25.6528C70.3677 31.6605 60.79 31.8246 54.8047 26.0188C48.8195 20.2129 48.6922 10.6347 54.5198 4.62697C60.351 -1.38447 69.9287 -1.54862 75.914 4.25722C81.8992 10.0631 82.0266 19.6413 76.1953 25.6528Z" fill="url(#paint3_linear_5234_7223)"/>
</g>
<defs>
<linearGradient id="paint0_linear_5234_7223" x1="14.5" y1="49" x2="164" y2="174" gradientUnits="userSpaceOnUse">
<stop stop-color="#8888F1"/>
<stop offset="1" stop-color="#FC96BB"/>
</linearGradient>
<linearGradient id="paint1_linear_5234_7223" x1="40.3588" y1="87.1862" x2="82.0372" y2="132.77" gradientUnits="userSpaceOnUse">
<stop stop-color="#8888F1"/>
<stop offset="0.760417" stop-color="#8888F1"/>
</linearGradient>
<linearGradient id="paint2_linear_5234_7223" x1="97" y1="34.5" x2="198" y2="162.5" gradientUnits="userSpaceOnUse">
<stop stop-color="#8888F1"/>
<stop offset="1" stop-color="#8442E8"/>
</linearGradient>
<linearGradient id="paint3_linear_5234_7223" x1="80.5" y1="29" x2="38.5" y2="-6" gradientUnits="userSpaceOnUse">
<stop stop-color="#8888F1"/>
<stop offset="1" stop-color="#FC96BB"/>
</linearGradient>
</defs>
</svg>
